<?xml version="1.0" standalone="no"?>
<!DOCTYPE svg PUBLIC "-//W3C//DTD SVG 1.1//EN" "http://www.w3.org/Graphics/SVG/1.1/DTD/svg11.dtd" >
<svg xmlns="http://www.w3.org/2000/svg">
<metadata>Generated by IcoMoon</metadata>
<defs>
<font id="esball" horiz-adv-x="1024">
<font-face units-per-em="1024" ascent="960" descent="-64" />
<missing-glyph horiz-adv-x="1024" />
<glyph unicode="&#x20;" horiz-adv-x="512" d="" />
<glyph unicode="&#xe000;" glyph-name="weibo" d="M384 202.667c6.4 12.8 12.8 25.6 6.4 38.4s-12.8 19.2-25.6 25.6c-12.8 6.4-25.6 6.4-44.8 0-12.8-6.4-25.6-12.8-32-25.6s-12.8-25.6-6.4-38.4c6.4-12.8 12.8-25.6 25.6-32 12.8 0 25.6 0 44.8 6.4 12.8 6.4 25.6 12.8 32 25.6v0zM441.6 273.067c0 6.4 6.4 12.8 0 12.8 0 6.4-6.4 12.8-12.8 12.8s-12.8 0-12.8 0-12.8-6.4-12.8-12.8-6.4-19.2 6.4-25.6c6.4 0 12.8 0 12.8 0 12.8 6.4 12.8 6.4 19.2 12.8v0zM537.6 215.467c-12.8-38.4-44.8-70.4-89.6-83.2-44.8-25.6-83.2-25.6-128-12.8-38.4 12.8-70.4 38.4-83.2 70.4s-12.8 70.4 6.4 108.8c12.8 38.4 44.8 64 83.2 76.8 38.4 19.2 76.8 25.6 121.6 12.8s76.8-32 89.6-70.4c19.2-32 19.2-70.4 0-102.4v0zM716.8 305.067c-6.4 38.4-19.2 70.4-51.2 96-32 32-70.4 51.2-115.2 64-51.2 12.8-102.4 12.8-160 12.8-83.2-12.8-153.6-38.4-211.2-83.2s-83.2-96-76.8-147.2c0-38.4 19.2-70.4 51.2-96s70.4-44.8 121.6-64c44.8-12.8 102.4-19.2 153.6-12.8 83.2 6.4 153.6 38.4 211.2 76.8 57.6 44.8 83.2 96 76.8 153.6v0zM896 305.067c0-25.6-6.4-51.2-19.2-76.8s-32-51.2-64-76.8c-25.6-25.6-57.6-44.8-96-70.4-38.4-19.2-76.8-38.4-128-44.8-51.2-12.8-102.4-12.8-153.6-12.8s-108.8 6.4-160 19.2c-51.2 12.8-96 32-134.4 51.2-44.8 12.8-76.8 38.4-102.4 76.8-25.6 32-38.4 70.4-38.4 115.2s12.8 89.6 38.4 140.8 64 96 108.8 147.2c64 64 128 108.8 198.4 134.4s108.8 25.6 140.8-6.4c25.6-25.6 32-64 12.8-121.6 0-6.4 0-6.4 0-12.8s0-6.4 6.4-6.4c0 0 6.4 0 6.4 0s6.4 0 6.4 0v0c57.6 32 102.4 44.8 147.2 44.8 38.4 0 70.4-12.8 83.2-32 19.2-25.6 19.2-57.6 0-102.4 0-6.4 0-12.8 0-12.8s0-6.4 0-6.4c6.4 0 6.4-6.4 6.4-6.4s6.4 0 12.8 0c19.2-6.4 38.4-12.8 57.6-25.6s32-25.6 44.8-44.8c12.8-25.6 25.6-51.2 25.6-70.4v0zM851.2 657.067c12.8-19.2 25.6-38.4 32-64s6.4-44.8-6.4-70.4c0-6.4-6.4-12.8-12.8-19.2s-19.2-6.4-25.6 0c-6.4 0-12.8 6.4-19.2 12.8s-6.4 12.8 0 25.6c6.4 25.6 6.4 44.8-12.8 64-12.8 19.2-38.4 25.6-57.6 19.2-12.8 0-19.2 0-25.6 6.4s-12.8 12.8-12.8 19.2c0 12.8 0 19.2 6.4 25.6s12.8 12.8 19.2 12.8c19.2 6.4 44.8 6.4 70.4 0 6.4 0 25.6-12.8 44.8-32v0zM953.6 753.067c32-38.4 51.2-76.8 64-128s6.4-96-6.4-140.8c0-12.8-12.8-19.2-19.2-19.2-12.8-6.4-19.2-6.4-32-6.4-12.8 6.4-19.2 12.8-25.6 19.2-6.4 12.8-6.4 19.2 0 32 12.8 32 12.8 64 6.4 96s-19.2 64-44.8 89.6c-25.6 25.6-51.2 44.8-83.2 57.6s-64 12.8-102.4 6.4c-12.8 0-19.2 0-32 6.4-6.4 6.4-12.8 12.8-12.8 25.6s0 19.2 6.4 32c6.4 6.4 12.8 12.8 25.6 12.8 44.8 12.8 96 6.4 140.8-6.4s83.2-38.4 115.2-76.8v0z" />
<glyph unicode="&#xe001;" glyph-name="wechat" d="M288 644.267c0 12.8-6.4 25.6-12.8 32s-19.2 12.8-32 12.8c-12.8 0-25.6-6.4-38.4-12.8-6.4-6.4-12.8-19.2-12.8-32s6.4-25.6 12.8-32c12.8-12.8 25.6-12.8 38.4-12.8s25.6 6.4 32 12.8c12.8 6.4 12.8 19.2 12.8 32zM659.2 394.667c0 12.8-6.4 19.2-12.8 25.6s-19.2 6.4-32 6.4c-6.4 0-19.2 0-19.2-12.8-12.8-6.4-12.8-12.8-12.8-19.2 0-12.8 6.4-19.2 12.8-25.6 0-6.4 12.8-12.8 19.2-12.8 12.8 0 25.6 6.4 32 6.4 12.8 12.8 12.8 19.2 12.8 32zM544 644.267c0 12.8-6.4 25.6-12.8 32s-19.2 12.8-32 12.8-25.6-6.4-38.4-12.8c-12.8-6.4-19.2-19.2-19.2-32s6.4-25.6 19.2-32c12.8-12.8 25.6-12.8 38.4-12.8s25.6 6.4 32 12.8c6.4 6.4 12.8 19.2 12.8 32zM864 394.667c0 12.8-6.4 19.2-12.8 25.6-12.8 6.4-25.6 6.4-32 6.4-12.8 0-19.2-6.4-25.6-12.8s-12.8-12.8-12.8-25.6c0-12.8 6.4-19.2 12.8-25.6s12.8-12.8 25.6-12.8c12.8 0 25.6 6.4 32 12.8 6.4 12.8 12.8 19.2 12.8 32zM729.6 586.667c-12.8 0-19.2 0-32 0-64 6.4-115.2-6.4-160-32s-83.2-64-108.8-102.4c-32-44.8-44.8-96-44.8-147.2 0-25.6 0-51.2 12.8-76.8-12.8 0-19.2 0-32 0-6.4 0-12.8 0-25.6 0-6.4 0-19.2 0-25.6 0-12.8 6.4-19.2 6.4-25.6 6.4s-12.8 0-25.6 6.4c-12.8 0-19.2 6.4-25.6 6.4l-128-64 38.4 108.8c-102.4 70.4-147.2 147.2-147.2 243.2 0 57.6 12.8 108.8 44.8 153.6 38.4 51.2 83.2 89.6 134.4 115.2 57.6 25.6 115.2 38.4 179.2 38.4 57.6 0 115.2-12.8 166.4-32s96-51.2 134.4-89.6c32-38.4 57.6-83.2 70.4-134.4v0zM1024 311.467c0-38.4-12.8-76.8-32-108.8-25.6-38.4-51.2-70.4-89.6-96l25.6-89.6-96 57.6c-51.2-12.8-89.6-19.2-108.8-19.2-57.6 0-108.8 12.8-153.6 38.4-57.6 12.8-96 44.8-121.6 83.2s-38.4 83.2-38.4 134.4 12.8 89.6 38.4 128c25.6 38.4 64 70.4 108.8 96s102.4 32 153.6 32c51.2 0 102.4-12.8 153.6-32 44.8-25.6 83.2-57.6 115.2-96s44.8-83.2 44.8-128z" />
<glyph unicode="&#xe002;" glyph-name="arrow-line-right" d="M723.2 125.867c-12.8 12.8-12.8 32 0 38.4l217.6 236.8h-915.2c-12.8 0-25.6 12.8-25.6 25.6s12.8 25.6 25.6 25.6h908.8l-217.6 236.8c-12.8 12.8-12.8 32 0 38.4 12.8 12.8 32 12.8 38.4 0l256-281.6c6.4 0 12.8-6.4 12.8-19.2s-6.4-19.2-6.4-19.2-256-281.6-256-281.6c-6.4-6.4-12.8-6.4-19.2-6.4s-12.8 0-19.2 6.4z" />
<glyph unicode="&#xe003;" glyph-name="heart" d="M512-40.533c531.2 416 512 563.2 512 684.8 0 115.2-96 256-256 256s-256-172.8-256-172.8-96 166.4-256 166.4-256-140.8-256-256c0-115.2-19.2-262.4 512-678.4z" />
<glyph unicode="&#xe004;" glyph-name="arrow-line-down" d="M812.8 215.467c6.4-6.4 6.4-12.8 6.4-19.2s0-12.8-6.4-19.2l-281.6-256c-6.4-6.4-12.8-6.4-19.2-6.4s-19.2 0-19.2 6.4c-6.4 6.4-281.6 256-281.6 256-12.8 12.8-12.8 32 0 38.4 12.8 12.8 32 12.8 38.4 0l236.8-217.6v908.8c0 12.8 12.8 32 25.6 32s25.6-12.8 25.6-25.6v-908.8l236.8 217.6c12.8 0 32 0 38.4-6.4z" />
<glyph unicode="&#xe005;" glyph-name="arrow-line-left" d="M300.8 125.867c-6.4-6.4-12.8-6.4-19.2-6.4s-12.8 0-19.2 6.4l-256 281.6c0 6.4-6.4 12.8-6.4 19.2s6.4 19.2 6.4 19.2c6.4 6.4 256 281.6 256 281.6 12.8 12.8 32 12.8 38.4 0 12.8-12.8 12.8-32 0-38.4l-211.2-236.8h908.8c12.8 0 25.6-12.8 25.6-25.6s-12.8-25.6-25.6-25.6h-908.8l217.6-236.8c6.4-12.8 6.4-32-6.4-38.4z" />
<glyph unicode="&#xe006;" glyph-name="arrow-line-up" d="M812.8 637.867c-12.8-12.8-32-12.8-38.4 0l-236.8 211.2v-908.8c0-12.8-12.8-25.6-25.6-25.6s-25.6 12.8-25.6 25.6v908.8l-236.8-211.2c-12.8-12.8-32-12.8-38.4 0-12.8 12.8-12.8 32 0 38.4 0 0 275.2 249.6 281.6 256 6.4 0 12.8 6.4 19.2 6.4 12.8 0 19.2-6.4 19.2-6.4l281.6-256c6.4-6.4 6.4-12.8 6.4-19.2s0-12.8-6.4-19.2z" />
<glyph unicode="&#xe007;" glyph-name="arrow-down" d="M512 330.667l396.8 377.6c12.8 12.8 25.6 12.8 38.4 0l70.4-70.4c12.8-12.8 12.8-25.6 0-38.4l-480-454.4c-6.4-6.4-12.8-6.4-19.2-6.4s-12.8 6.4-19.2 6.4l-492.8 460.8c-6.4 6.4-6.4 25.6 0 32l70.4 70.4c12.8 12.8 25.6 12.8 38.4 0 0 0 396.8-377.6 396.8-377.6z" />
<glyph unicode="&#xe008;" glyph-name="arrow-left" d="M416 426.667l384-396.8c6.4-6.4 6.4-25.6 0-38.4l-70.4-70.4c-6.4-6.4-25.6-6.4-38.4 0l-467.2 486.4c0 6.4-6.4 12.8-6.4 19.2s0 12.8 6.4 19.2l467.2 486.4c12.8 6.4 32 6.4 38.4 0l70.4-70.4c6.4-6.4 6.4-25.6 0-38.4l-384-396.8z" />
<glyph unicode="&#xe009;" glyph-name="arrow-right" d="M608 426.667l-384 396.8c-6.4 6.4-6.4 25.6 0 38.4l70.4 70.4c6.4 6.4 25.6 12.8 38.4 0l467.2-486.4c6.4-6.4 6.4-12.8 6.4-19.2s0-12.8-6.4-19.2l-467.2-486.4c-12.8-6.4-32-6.4-38.4 0l-70.4 70.4c-6.4 6.4-6.4 25.6 0 38.4l384 396.8z" />
<glyph unicode="&#xe00a;" glyph-name="arrow-up" d="M512 522.667l-396.8-384c-6.4-6.4-25.6-6.4-38.4 0l-70.4 70.4c-6.4 6.4-6.4 25.6 0 38.4l486.4 467.2c6.4 0 12.8 6.4 19.2 6.4s12.8 0 19.2-6.4l486.4-467.2c6.4-6.4 6.4-25.6 0-38.4l-70.4-70.4c-6.4-6.4-25.6-6.4-38.4 0l-396.8 384z" />
<glyph unicode="&#xe00b;" glyph-name="member" d="M736 433.067c51.2 57.6 83.2 128 76.8 211.2-6.4 140.8-115.2 262.4-262.4 275.2-185.6 19.2-345.6-140.8-326.4-332.8 19.2-153.6 153.6-262.4 307.2-256 44.8 0 70.4 6.4 108.8 25.6 12.8 6.4 38.4-12.8 51.2-12.8 19.2-6.4 38.4-19.2 51.2-32 70.4-57.6 115.2-153.6 128-243.2 0-6.4 0-12.8 0-19.2-6.4-12.8-19.2-19.2-32-19.2-121.6-6.4-243.2-6.4-364.8-6.4-115.2 0-224 0-339.2 0-25.6 0 0 51.2 6.4 64 19.2 64 57.6 128 102.4 179.2 6.4 6.4 12.8 12.8 12.8 25.6 6.4 19.2-12.8 32-19.2 44.8s-25.6 25.6-38.4 25.6c-12.8 0-19.2-6.4-32-12.8-89.6-83.2-153.6-192-166.4-313.6 0-32 0-64 19.2-83.2s44.8-19.2 70.4-19.2c192 0 384 0 576 0 64 0 128 0 192 0 32 0 64 0 96 0 25.6 0 57.6-6.4 70.4 19.2 0 25.6 0 44.8 0 64s-6.4 32-6.4 51.2-12.8 64-32 96-64 121.6-115.2 166.4c-19.2 19.2-44.8 38.4-64 57.6 0 0-64 44.8-70.4 44.8zM339.2 573.867c-38.4 140.8 89.6 262.4 230.4 230.4 64-12.8 108.8-64 128-128 38.4-140.8-89.6-262.4-230.4-230.4-64 19.2-108.8 64-128 128z" />
<glyph unicode="&#xe00c;" glyph-name="download" d="M992-46.933h-960c-19.2 0-32 12.8-32 25.6v723.2c0 12.8 12.8 32 32 32h320c12.8 0 32-12.8 32-32s-19.2-32-38.4-32h-288v-659.2h902.4v659.2h-288c-12.8 0-32 12.8-32 32s12.8 32 32 32h320c12.8 0 32-12.8 32-32v-723.2c0-12.8-12.8-25.6-32-25.6v0zM512 138.667c-6.4 0-12.8 0-19.2 6.4l-192 185.6c-6.4 12.8-6.4 32 0 44.8 12.8 12.8 32 12.8 44.8 0l134.4-134.4v633.6c0 12.8 12.8 32 32 32 12.8 0 32-12.8 32-32v-627.2l134.4 134.4c12.8 12.8 32 12.8 44.8 0s12.8-32 0-44.8l-185.6-185.6c-12.8-12.8-19.2-12.8-25.6-12.8v0z" />
<glyph unicode="&#xe00d;" glyph-name="nav" d="M44.8 714.667h934.4c25.6 0 44.8 19.2 44.8 44.8s-19.2 44.8-44.8 44.8h-934.4c-25.6-6.4-44.8-25.6-44.8-44.8s19.2-44.8 44.8-44.8zM44.8 381.867h934.4c25.6 0 44.8 19.2 44.8 44.8s-19.2 44.8-44.8 44.8h-934.4c-25.6 0-44.8-19.2-44.8-44.8s19.2-44.8 44.8-44.8zM44.8 55.467h934.4c25.6 0 44.8 19.2 44.8 44.8s-19.2 44.8-44.8 44.8h-934.4c-25.6 0-44.8-19.2-44.8-44.8s19.2-44.8 44.8-44.8z" />
<glyph unicode="&#xe00e;" glyph-name="close-outline" d="M710.4 196.267l32 32-198.4 198.4 198.4 198.4-32 32-198.4-198.4-198.4 198.4-32-32 198.4-198.4-198.4-198.4 32-32 198.4 198.4 198.4-198.4zM1024 426.667c0 281.6-230.4 512-512 512s-512-230.4-512-512c0-281.6 230.4-512 512-512s512 230.4 512 512zM44.8 426.667c0 256 211.2 467.2 467.2 467.2s467.2-211.2 467.2-467.2-211.2-467.2-467.2-467.2-467.2 211.2-467.2 467.2z" />
<glyph unicode="&#xe00f;" glyph-name="close-solid" d="M512 938.667c281.6 0 512-230.4 512-512s-230.4-512-512-512c-281.6 0-512 230.4-512 512s230.4 512 512 512zM768 241.067l-185.6 185.6 185.6 185.6-70.4 70.4-185.6-185.6-185.6 185.6-70.4-70.4 185.6-185.6-185.6-185.6 70.4-70.4 185.6 185.6 185.6-185.6 70.4 70.4z" />
<glyph unicode="&#xe010;" glyph-name="close" d="M12.8-78.933c6.4-6.4 12.8-6.4 19.2-6.4s12.8 0 19.2 6.4l460.8 460.8 460.8-460.8c6.4-6.4 12.8-6.4 19.2-6.4s12.8 0 19.2 6.4c12.8 12.8 12.8 32 0 44.8l-454.4 460.8 460.8 460.8c12.8 12.8 12.8 32 0 44.8s-32 12.8-44.8 0l-460.8-460.8-460.8 454.4c-12.8 12.8-32 12.8-44.8 0-6.4-12.8-6.4-25.6 6.4-38.4l454.4-460.8-454.4-460.8c-12.8-12.8-12.8-32 0-44.8v0z" />
<glyph unicode="&#xe011;" glyph-name="talk-outline" d="M364.801 497.067c0-19.198-6.4-38.4-19.198-51.2s-32-19.198-51.2-19.198-38.4 6.4-57.6 19.198c-12.8 12.8-19.198 32-19.198 51.2s6.4 38.4 19.198 51.2c19.198 19.198 32 25.6 57.6 25.6s38.4-6.4 51.2-19.198c12.8-19.198 19.198-32 19.198-57.6zM588.8 497.067c0-19.198-6.4-38.4-19.198-51.2-19.198-12.8-38.4-19.198-57.6-19.198s-38.4 6.4-51.2 19.198-25.6 32-25.6 51.2c0 25.6 12.8 38.4 25.6 57.6 12.8 12.8 32 19.198 51.2 19.198s38.4-6.4 51.2-19.198c12.8-19.198 25.6-32 25.6-57.6zM806.398 497.067c0-19.198-6.4-38.4-19.198-51.2-19.198-12.8-38.4-19.198-57.6-19.198s-38.4 6.4-51.2 19.198c-12.8 12.8-19.198 32-19.198 51.2s6.4 38.4 19.198 51.2c12.8 12.8 32 19.198 51.2 19.198s38.4-6.4 51.2-19.198c19.198-12.8 25.6-25.6 25.6-51.2zM512 791.465c-76.8 0-147.199-12.8-217.599-38.4s-121.599-64-160.001-108.799c-38.4-44.8-57.6-89.598-57.6-147.199 0-44.8 12.8-83.2 38.4-121.599s64-70.4 115.199-102.399l44.8-25.6-12.8-57.6c-12.8-32-25.6-70.4-38.4-95.999 57.6 25.6 108.799 57.6 153.599 95.999l25.6 19.198 32-6.4c25.6-6.4 51.2-6.4 76.8-6.4 76.8 0 147.199 12.8 217.599 38.4s121.599 64 160.001 108.799c38.4 44.8 57.6 95.999 57.6 147.199s-19.198 102.399-57.6 147.199c-38.4 44.8-95.999 76.8-160.001 108.799-70.4 32-140.799 44.8-217.599 44.8v0zM1023.997 497.067c0-64-19.198-127.999-70.4-185.599-44.8-57.6-108.799-102.399-185.599-134.399s-166.399-51.2-255.998-51.2c-25.6 0-51.2 0-83.2 6.4-76.8-64-166.399-108.799-262.398-140.799-19.198-6.4-38.4-6.4-64-12.8h-6.4c-6.4 0-12.8 0-12.8 6.4-6.4 6.4-6.4 12.8-6.4 12.8v0c0 0 0 6.4 0 6.4s0 6.4 0 6.4c0 0 0 6.4 6.4 6.4v6.4c0 0 0 0 6.4 6.4 0 12.8 0 12.8 0 12.8s6.4 12.8 12.8 19.198c12.8 12.8 12.8 12.8 19.198 19.198s12.8 12.8 19.198 25.6c6.4 12.8 12.8 19.198 19.198 25.6 6.4 12.8 12.8 19.198 12.8 32 6.4 12.8 12.8 25.6 12.8 44.8-57.6 32-108.799 76.8-140.799 127.999s-44.8 102.399-44.8 160.001c0 51.2 12.8 95.999 38.4 140.799s64 83.2 108.799 115.199c44.8 32 102.399 57.6 166.399 76.8s127.999 32 198.397 32 134.399-12.8 198.397-32c64-19.198 115.199-44.8 166.399-76.8 44.8-32 83.2-70.4 108.799-115.199s38.4-89.598 38.4-140.799v0z" />
<glyph unicode="&#xe013;" glyph-name="arrow-thin-down" d="M902.848 694.667l55.84-61.408-446.688-480.192-446.688 485.76 55.84 61.408 390.848-424.352 390.848 418.752z" />
<glyph unicode="&#xe014;" glyph-name="arrow-thin-left" d="M766.72 803.435l-397.984-376.768 397.984-376.768-58.368-53.056-451.072 429.824 456.352 424.512 53.056-47.744z" />
<glyph unicode="&#xe015;" glyph-name="arrow-thin-right" d="M267.232 783.627l56.096 51.008 438.56-407.968-438.56-407.968-56.096 51.008 382.464 356.96-382.464 356.96z" />
<glyph unicode="&#xe016;" glyph-name="arrow-thin-up" d="M907.84 159.051l-395.84 418.144-390.272-418.144-55.744 61.312 446.016 479.456 446.016-479.456-50.176-61.312z" />
<glyph unicode="&#xe017;" glyph-name="mail-outline" d="M947.2 113.067v441.6c-12.8-12.8-25.6-25.6-38.4-38.4-102.4-76.8-185.6-140.8-243.2-192-19.2-12.8-38.4-25.6-44.8-38.4-12.8-6.4-25.6-19.2-44.8-25.6s-44.8-12.8-57.6-12.8v0c-19.2 0-38.4 6.4-57.6 12.8-19.2 12.8-38.4 19.2-44.8 25.6-12.8 12.8-25.6 19.2-44.8 38.4-57.6 51.2-140.8 115.2-243.2 192-32 12.8-44.8 25.6-51.2 38.4v-441.6c0-6.4 0-6.4 6.4-12.8s6.4-6.4 12.8-6.4h838.4c6.4 0 12.8 0 12.8 6.4s0 12.8 0 12.8zM947.2 714.667v19.2c0 0 0 0 0 6.4s0 6.4 0 6.4 0 0 0 6.4-6.4 6.4-6.4 6.4h-851.2c-6.4 0-12.8 0-12.8-6.4s0-12.8 0-19.2c0-64 25.6-115.2 83.2-160 70.4-57.6 147.2-115.2 224-179.2 0 0 12.8-6.4 19.2-12.8 12.8-12.8 25.6-19.2 32-25.6s12.8-12.8 25.6-19.2c12.8-6.4 19.2-12.8 25.6-12.8 12.8 0 19.2-6.4 25.6-6.4v0c6.4 0 12.8 0 25.6 6.4 6.4 6.4 19.2 12.8 25.6 12.8 12.8 6.4 19.2 12.8 32 19.2 0 6.4 12.8 12.8 25.6 19.2 6.4 12.8 12.8 12.8 19.2 19.2 76.8 64 153.6 121.6 230.4 179.2 19.2 12.8 38.4 38.4 57.6 64 12.8 32 19.2 57.6 19.2 76.8v0zM1024 733.867v-620.8c0-25.6-6.4-44.8-25.6-64s-38.4-25.6-64-25.6h-844.8c-25.6 0-44.8 6.4-64 25.6s-25.6 38.4-25.6 64v620.8c0 25.6 6.4 44.8 25.6 64s38.4 25.6 64 25.6h838.4c25.6 0 44.8-12.8 64-25.6 25.6-12.8 32-38.4 32-64z" />
<glyph unicode="&#xe018;" glyph-name="eye" d="M512 721.067c224 0 390.4-160 512-294.4-115.2-115.2-281.6-288-512-288s-358.4 134.4-512 288c179.2 179.2 326.4 294.4 512 294.4v0zM512 215.467c115.2 0 204.8 96 204.8 211.2s-96 211.2-204.8 211.2c-115.2 0-204.8-96-204.8-211.2s96-211.2 204.8-211.2zM512 497.067c0-38.4 32-70.4 70.4-70.4 19.2 0 32 6.4 44.8 19.2v-19.2c6.4-64-51.2-121.6-115.2-121.6s-121.6 57.6-121.6 121.6 57.6 121.6 121.6 121.6h19.2c-12.8-12.8-19.2-32-19.2-51.2z" />
<glyph unicode="&#xe019;" glyph-name="eye-disabled" d="M787.2 650.667c96-64 172.8-153.6 236.8-230.4-115.2-121.6-281.6-307.2-512-307.2-83.2 0-147.2 19.2-211.2 51.2l-172.8-179.2-57.6 57.6 160 160c-76.8 57.6-153.6 140.8-230.4 224 179.2 192 326.4 313.6 512 313.6 76.8 0 147.2-19.2 211.2-51.2l172.8 179.2 57.6-57.6-166.4-160zM307.2 426.667c0-44.8 12.8-83.2 38.4-115.2l64 64c-12.8 12.8-19.2 32-19.2 51.2 0 64 57.6 121.6 121.6 121.6h19.2c-12.8-12.8-19.2-32-19.2-51.2 0-6.4 0-6.4 0-12.8l115.2 115.2c-32 19.2-70.4 32-115.2 32-108.8 0-204.8-89.6-204.8-204.8v0zM512 215.467c115.2 0 204.8 96 204.8 211.2 0 44.8-12.8 83.2-38.4 121.6l-108.8-121.6c6.4 0 6.4 0 12.8 0 19.2 0 32 6.4 44.8 19.2v-19.2c6.4-64-51.2-121.6-115.2-121.6-19.2 0-38.4 6.4-57.6 12.8l-64-64c38.4-19.2 76.8-38.4 121.6-38.4v0z" />
<glyph unicode="&#xe01a;" glyph-name="triangle-down" d="M80.032 642.667l431.968-431.968 431.968 431.968h-863.936z" />
<glyph unicode="&#xe01b;" glyph-name="triangle-left" d="M272 426.667l480-480v959.968l-480-480z" />
<glyph unicode="&#xe01c;" glyph-name="triangle-right" d="M272 906.667l480-480-480-480v959.968z" />
<glyph unicode="&#xe01d;" glyph-name="triangle-up" d="M512 650.667l-447.968-447.968h895.936l-447.968 447.968z" />
<glyph unicode="&#xe01e;" glyph-name="question" d="M748.8 87.467c128 76.8 217.6 224 217.6 390.4 0 256-204.8 460.8-454.4 460.8s-454.4-204.8-454.4-460.8c0-256 204.8-460.8 454.4-460.8 38.4 0 70.4 6.4 108.8 12.8 44.8-76.8 108.8-134.4 249.6-108.8v76.8c0 0-89.6 25.6-121.6 89.6zM748.8 413.867c0-76.8-25.6-147.2-64-198.4-51.2 51.2-128 96-224 89.6v-89.6c0 0 64 0 115.2-83.2-19.2-6.4-38.4-6.4-51.2-6.4-128 0-230.4 128-230.4 288 0 19.2 0 96 0 121.6 0 160 102.4 288 230.4 288s230.4-128 230.4-288c-6.4-19.2-6.4-96-6.4-121.6v0z" />
<glyph unicode="&#xe01f;" glyph-name="clock" d="M512 938.667c281.6 0 512-230.4 512-512s-230.4-512-512-512-512 230.4-512 512 230.4 512 512 512zM512 17.067c224 0 409.6 185.6 409.6 409.6s-185.6 409.6-409.6 409.6-409.6-185.6-409.6-409.6 185.6-409.6 409.6-409.6zM537.6 682.667v-268.8l230.4-134.4-38.4-64-268.8 160v307.2h76.8z" />
<glyph unicode="&#xe020;" glyph-name="thum" d="M198.4 938.667h-166.4c-19.2 0-32-12.8-32-32v-166.4c0-19.2 12.8-38.4 32-38.4h166.4c19.2 0 38.4 19.2 38.4 38.4v166.4c0 19.2-19.2 32-38.4 32zM595.2 938.667h-166.4c-19.2 0-32-12.8-32-32v-166.4c0-19.2 12.8-38.4 32-38.4h166.4c19.2 0 32 19.2 32 38.4v166.4c0 19.2-12.8 32-32 32zM1024 906.667c0 19.2-12.8 32-32 32h-166.4c-19.2 0-38.4-12.8-38.4-32v-166.4c0-19.2 19.2-38.4 38.4-38.4h166.4c19.2 0 32 19.2 32 38.4 0 0 0 166.4 0 166.4zM198.4 541.867h-166.4c-19.2 0-32-12.8-32-32v-166.4c0-19.2 12.8-32 32-32h166.4c19.2 0 38.4 12.8 38.4 32v166.4c0 19.2-19.2 32-38.4 32zM595.2 541.867h-166.4c-19.2 0-32-12.8-32-32v-166.4c0-19.2 12.8-32 32-32h166.4c19.2 0 32 12.8 32 32v166.4c0 19.2-12.8 32-32 32zM992 541.867h-166.4c-19.2 0-38.4-12.8-38.4-32v-166.4c0-19.2 19.2-32 38.4-32h166.4c19.2 0 32 12.8 32 32v166.4c0 19.2-12.8 32-32 32zM198.4 151.467h-166.4c-19.2 0-32-19.2-32-38.4v-166.4c0-19.2 12.8-32 32-32h166.4c19.2 0 38.4 12.8 38.4 32v166.4c0 19.2-19.2 38.4-38.4 38.4zM595.2 151.467h-166.4c-19.2 0-32-19.2-32-38.4v-166.4c0-19.2 12.8-32 32-32h166.4c19.2 0 32 12.8 32 32v166.4c0 19.2-12.8 38.4-32 38.4zM992 151.467h-166.4c-19.2 0-38.4-19.2-38.4-38.4v-166.4c0-19.2 19.2-32 38.4-32h166.4c19.2 0 32 12.8 32 32v166.4c0 19.2-12.8 38.4-32 38.4z" />
<glyph unicode="&#xe900;" glyph-name="time" horiz-adv-x="1027" d="M468.665 938.667h83.461c-2.056 0.343 4.997-1.967 12.424-3.155 217.044-18.977 398.576-179.759 449.116-391.393-1.585 12.538 8.301-30.303 13.297-74.624l0.247-86.163c0.343 2.056-1.967-4.997-3.155-12.424-18.367-204.891-167.169-379.244-365.618-436.1-35.69-10.51-71.001-13.72-103.101-20.14h-83.461c-3.21 0-9.63 3.21-12.84 3.21-213.469 20.235-393.172 178.91-445.441 388.064 1.536-12.473-8.35 30.368-13.346 74.689l-0.247 86.163c0 3.21 3.21 9.63 3.21 12.84 20.644 214.423 180.772 394.447 391.304 445.472-11.671-1.543 29.211 8.314 71.58 13.316zM545.705 23.808c211.862 12.84 365.944 202.232 365.944 365.944-51.361 6.42-64.201 12.84-60.991 32.1 3.21 41.73 38.52 32.1 64.201 35.31-15.48 195.498-171.99 351.365-367.836 365.865l-1.317-25.602c0.102-0.963 0.161-2.080 0.161-3.21 0-17.729-14.372-32.1-32.1-32.1-0.057 0-0.113 0-0.17 0-19.419 0.179-35.122 15.881-35.302 35.293v25.697c-218.282-12.84-365.944-208.652-365.944-365.944 41.73-3.21 57.781-12.84 57.781-35.31-3.21-35.31-32.1-35.31-57.781-35.31 4.466-99.341 56.96-201.5 137.578-272.461 54.077-51.823 137.785-90.695 230.453-96.635 4.333 51.303 13.963 64.143 36.433 64.143 35.31 3.21 25.68-28.89 28.89-57.781zM459.034 258.14v89.881c-0.053 6.058-2.484 11.773-6.436 16.067-16.553 15.335-26.889 37.21-26.889 61.5 0 27.233 12.993 51.431 33.118 66.734 6.172 4.773 9.975 11.939 9.975 19.993 0 0.925-0.050 1.839-0.148 2.739l9.64 173.23c-0.068 0.827-0.106 1.791-0.106 2.764 0 18.537 14.028 33.797 32.048 35.743 1.176 0.128 2.355 0.193 3.548 0.193 17.729 0 32.1-14.372 32.1-32.1 0-1.194-0.065-2.373-0.192-3.533 3.223-41.587 3.223-86.528 3.223-128.258v-32.1c-0.128-1.609-0.201-3.485-0.201-5.377 0-19.048 7.406-36.366 19.497-49.231 11.677-13.105 18.833-30.529 18.833-49.625 0-20.739-8.441-39.506-22.074-53.054-5.981-6.496-9.646-15.199-9.646-24.757 0-0.326 0.004-0.651 0.013-0.975-3.211-54.523-0.001-112.303-6.421-166.874-0.106-14.067-10.112-41.597-26.033-64.743-6.067-12.298-18.908-12.298-31.748-2.668-20.194 13.627-34.228 37.167-35.305 64.042l-0.005 80.41h3.21z" />
<glyph unicode="&#xe901;" glyph-name="email" horiz-adv-x="1299" d="M1299.001 808.468c-0.068 32.56-11.050 62.973-29.524 87.407l0.267-0.368c-17.491 25.305-46.9 42.357-80.336 43.151l-1080.426 0.002c-30.861-0.686-59.372-16.534-77.339-40.69l-0.191-0.269c-19.126-23.792-31.115-55.080-31.451-89.158l-0.001-765.87c0.206-32.819 12.023-64.066 31.682-88.802l-0.23 0.3c17.454-23.105 45.593-38.655 77.397-39.493l1080.438-0.003c31.394 0.232 59.763 15.256 78.098 38.549l0.164 0.216c19.603 24.665 31.451 56.26 31.451 90.622 0 0.026 0 0.052 0 0.078v764.328zM877.704 464.7l374.486 374.486c3.253-8.882 5.135-19.138 5.135-29.833 0-0.569-0.005-1.137-0.016-1.703l0.001-765.71c0.005-0.36 0.008-0.785 0.008-1.211 0-9.769-1.609-19.162-4.577-27.928zM1193.676 883.804c9.258-0.057 18.573-2.767 26.591-7.455l-570.766-565.246-566.118 562.461c4.594 4.184 14.458 8.787 25.323 10.21l1081.314 0.030zM49.738 13.416c-2.788 8.153-4.397 17.546-4.397 27.315 0 0.426 0.003 0.851 0.009 1.275l-0.001 766.462c-0.003 0.272-0.005 0.593-0.005 0.915 0 10.685 1.878 20.931 5.322 30.426l374.29-374.376zM108.984-35.59c-10.111 0.082-20.241 3.348-28.735 8.906l379.816 453.351 175.541-175.541c3.526-3.322 8.29-5.364 13.531-5.364s10.006 2.042 13.541 5.374l-0.010-0.009 174.809 175.541 380.338-454.211c-7.546-5.112-17.613-8.518-28.46-8.776l-1080.37-0.001z" />
<glyph unicode="&#xe902;" glyph-name="question2" d="M505.127 938.622c-279.799-3.876-505.127-231.6-505.127-511.954 0-282.77 229.23-512 512-512s512 229.23 512 512c0 2.385-0.015 4.764-0.049 7.14l0.004-0.36c-3.825 279.837-231.568 505.218-511.955 505.218-2.415 0-4.828-0.016-7.236-0.050zM505.127 114.986h-4.437c-40.824 0.482-73.733 33.688-73.733 74.58 0 41.194 33.394 74.585 74.585 74.585 0.3 0 0.6-0.002 0.9-0.005h2.685c0.611 0.017 1.329 0.028 2.049 0.028 41.206 0 74.608-33.404 74.608-74.608 0-40.486-32.245-73.439-72.456-74.58l-5.908-0.002zM688.424 478.505c25.505 24.209-12.828-20.715-60.021-53.894l-32.481-22.222c-8.27-3.037-23.124-18.573-31.192-37.67-3.322-8.721-5.124-18.158-5.124-28.020 0-1.627 0.049-3.242 0.146-4.845l-0.012-5.242h-119.466v10.239c-0.603 4.699-0.948 10.136-0.948 15.651 0 26.148 7.739 50.492 21.050 70.86-42.888-39.696 14.388 23.748 83.893 70.377-1.442-3.144 12.612 8.129 22.788 22.368 9.724 10.524 17.069 26.631 18.273 44.426 0.012 0.339 0.012 0.466 0.012 0.59 0 18.975-6.145 36.517-16.553 50.742-12.355 13.404-30.275 21.927-50.184 21.927-2.341 0-4.656-0.118-6.937-0.348-1.731 0.25-4.069 0.376-6.441 0.376-21.931 0-41.292-11.002-52.865-27.785-11.097-16.861-17.773-37.614-17.891-59.917v-5.149h-123.564v5.46c-0.107 2.349-0.166 5.103-0.166 7.872 0 63.196 31.397 119.058 79.444 152.842 31.672 19.539 69.329 30.88 109.636 30.88 2.345 0 4.682-0.037 7.009-0.115 2.28 0.108 5.357 0.163 8.446 0.163 52.409 0 101.052-16.138 141.227-43.714 36.489-27.029 60.436-70.881 60.436-120.324 0-2.627-0.068-5.237-0.202-7.831-0.083-32.533-11.361-63.375-30.28-88.050z" />
<glyph unicode="&#xe903;" glyph-name="more-vertical" d="M608 829.867c0-57.6-44.8-102.4-102.4-102.4s-102.4 44.8-102.4 102.4c0 57.6 44.8 108.8 102.4 108.8s102.4-51.2 102.4-108.8zM608 407.467c0-57.6-44.8-102.4-102.4-102.4s-102.4 44.8-102.4 102.4 44.8 102.4 102.4 102.4 102.4-44.8 102.4-102.4zM608 17.067c0-57.6-44.8-102.4-102.4-102.4s-102.4 44.8-102.4 102.4c0 57.6 44.8 102.4 102.4 102.4s102.4-51.2 102.4-102.4z" />
<glyph unicode="&#xe904;" glyph-name="more-horizontal" d="M921.6 324.267c-57.6 0-102.4 44.8-102.4 102.4s44.8 102.4 102.4 102.4c51.2 0 102.4-44.8 102.4-102.4s-44.8-102.4-102.4-102.4zM499.2 324.267c-57.6 0-102.4 44.8-102.4 102.4s44.8 102.4 102.4 102.4 102.4-44.8 102.4-102.4-44.8-102.4-102.4-102.4zM102.4 324.267c-51.2 0-102.4 44.8-102.4 102.4s44.8 102.4 102.4 102.4 102.4-44.8 102.4-102.4-44.8-102.4-102.4-102.4z" />
<glyph unicode="&#xe905;" glyph-name="checkmark" d="M864 823.467l-480-473.6-224 217.6-160-153.6 384-384 640 640-160 153.6z" />
<glyph unicode="&#xe906;" glyph-name="tick" d="M134.784 341.803c94.304 174.464 169.728-18.88 259.328-4.736 146.176 155.616 301.76 311.2 452.64 466.816 14.144-14.144 28.288-28.288 42.432-37.728-150.88-226.304-306.496-452.672-462.080-678.976-89.6 75.456-188.608 165.024-292.352 254.624v0z" />
<glyph unicode="&#xe907;" glyph-name="talk" d="M364.8 490.667c0 19.2-6.4 38.4-19.2 51.2s-32 25.6-51.2 25.6-38.4-12.8-51.2-25.6c-19.2-12.8-25.6-32-25.6-51.2s6.4-38.4 19.2-51.2c19.2-12.8 38.4-25.6 57.6-25.6s38.4 12.8 51.2 25.6c12.8 12.8 19.2 32 19.2 51.2zM588.8 490.667c0 19.2-6.4 38.4-19.2 51.2-19.2 12.8-38.4 25.6-57.6 25.6s-38.4-12.8-51.2-25.6c-12.8-12.8-25.6-32-25.6-51.2s12.8-38.4 25.6-51.2c12.8-12.8 32-25.6 51.2-25.6s38.4 6.4 51.2 19.2c12.8 19.2 25.6 38.4 25.6 57.6zM806.4 490.667c0 19.2-6.4 38.4-19.2 51.2-19.2 12.8-38.4 25.6-57.6 25.6s-38.4-6.4-51.2-19.2c-12.8-12.8-19.2-32-19.2-51.2s6.4-38.4 19.2-51.2c12.8-12.8 32-19.2 51.2-19.2s38.4 6.4 51.2 19.2c19.2 6.4 25.6 25.6 25.6 44.8zM1024.001 490.667c0-64-19.2-128-70.399-185.6s-108.8-102.398-185.6-134.4c-76.8-32-166.4-51.2-256-51.2-44.8 0-83.2 6.4-121.6 12.8-64-64-147.2-108.8-249.6-128-19.2-6.4-38.4-6.4-44.8-6.4s-12.8 0-12.8 6.4c-6.4 0-6.4 6.4-6.4 12.8s0 12.8 12.8 19.2c0 0 6.4 6.4 12.8 12.8s12.8 12.8 12.8 12.8c0 6.4 6.4 6.4 12.8 12.8s12.8 12.8 12.8 19.2c6.4 6.4 6.4 12.8 12.8 19.2 6.4 12.8 6.4 19.2 12.8 25.6 0 12.8 6.4 19.2 6.4 32s6.4 25.6 6.4 44.8c-51.2 32-96 76.8-128 121.6s-51.2 102.398-51.2 153.6c0 64 19.2 128 70.399 185.6s102.398 96 185.6 128c76.8 32 166.4 51.2 256 51.2s179.2-12.8 256-51.2c76.8-32 140.8-76.8 185.6-134.4 51.2-51.2 70.399-115.2 70.399-179.2v0z" />
<glyph unicode="&#xe908;" glyph-name="star" d="M512 938.667c-282.77 0-512-229.23-512-512s229.23-512 512-512c282.77 0 512 229.23 512 512s-229.23 512-512 512zM838.4 471.466l-140.799-121.599c-6.771-5.38-11.075-13.616-11.075-22.855 0-3.272 0.54-6.417 1.534-9.35l41.54-172.596c0.664-2.436 1.046-5.233 1.046-8.12 0-17.674-14.327-32.001-32.001-32.001-6.322 0-12.214 1.834-17.175 4.996l-153.47 89.523c-4.505 3.002-10.044 4.788-15.999 4.788s-11.494-1.788-16.107-4.857l-153.492-89.532c-4.834-3.085-10.726-4.919-17.048-4.919-17.674 0-32.001 14.327-32.001 32.001 0 2.887 0.382 5.683 1.097 8.342l41.549 172.575c0.671 2.447 1.057 5.257 1.057 8.157 0 9.458-4.104 17.959-10.627 23.818l-140.83 121.625c-5.769 5.787-9.334 13.771-9.334 22.588 0 16.452 12.416 30.004 28.388 31.798l185.747 16.013c11.834 0.304 21.926 8.172 25.544 19.003l67.258 160.196c5.303 10.771 16.201 18.052 28.8 18.052s23.497-7.282 28.716-17.865l67.284-160.188c3.947-9.917 13.711-17.726 25.444-19.185l185.755-16.017c16.117-1.809 28.534-15.36 28.534-31.812 0-8.818-3.565-16.801-9.334-22.589z" />
<glyph unicode="&#xe909;" glyph-name="meter" d="M921.6 791.467l-364.8-364.8 364.8-364.8-44.8-44.8-364.8 364.8-364.8-364.8-44.8 44.8 364.8 364.8-364.8 364.8 44.8 44.8 364.8-364.8 364.8 364.8 44.8-44.8zM307.2 426.667c0-19.2-6.4-32-19.2-44.8-19.2-12.8-32-19.2-51.2-19.2s-32 6.4-44.8 19.2c-12.8 12.8-19.2 25.6-19.2 44.8s6.4 32 19.2 44.8c12.8 12.8 25.6 19.2 44.8 19.2s32-6.4 44.8-19.2c19.2-12.8 25.6-25.6 25.6-44.8zM512 765.867c19.2 0 32-6.4 44.8-19.2s19.2-25.6 19.2-44.8-6.4-32-19.2-44.8c-12.8-12.8-25.6-25.6-44.8-25.6s-32 12.8-44.8 25.6c-12.8 12.8-19.2 25.6-19.2 44.8s6.4 32 19.2 44.8c12.8 12.8 25.6 19.2 44.8 19.2zM512 221.867c19.2 0 32-6.4 44.8-19.2 12.8-19.2 19.2-32 19.2-51.2s-6.4-32-19.2-44.8c-12.8-12.8-32-19.2-44.8-19.2s-32 6.4-44.8 19.2c-12.8 12.8-19.2 25.6-19.2 44.8s6.4 32 19.2 44.8c12.8 19.2 25.6 25.6 44.8 25.6zM851.2 426.667c0-19.2-6.4-32-19.2-44.8s-25.6-19.2-44.8-19.2-32 6.4-44.8 19.2c-12.8 12.8-19.2 32-19.2 44.8s6.4 32 19.2 44.8c12.8 12.8 25.6 19.2 44.8 19.2s32-6.4 44.8-19.2c12.8-12.8 19.2-25.6 19.2-44.8z" />
<glyph unicode="&#xe90a;" glyph-name="bell" d="M1017.6 119.467l-160 224v256c-6.4 185.6-160 339.2-345.6 339.2s-339.2-153.6-339.2-345.6v-256l-160-224c-12.8-6.4-12.8-32-6.4-44.8 6.4-19.2 25.6-25.6 44.8-25.6h339.2c0 0 0 0 0 0 0-70.4 51.2-128 121.6-128s121.6 57.6 121.6 121.6c0 0 0 0 0 0h339.2c19.2 0 38.4 12.8 44.8 25.6 6.4 19.2 6.4 44.8 0 57.6zM147.2 138.667l115.2 160c6.4 6.4 6.4 19.2 6.4 32v262.4c0 134.4 108.8 243.2 243.2 243.2s243.2-108.8 243.2-243.2v-268.8c0-12.8 6.4-19.2 6.4-32l115.2-153.6h-729.6z" />
<glyph unicode="&#xe90b;" glyph-name="bulb" d="M512 778.667c-172.8 0-313.6-134.4-313.6-300.8 0-108.8 44.8-172.8 76.8-217.6 19.2-32 32-44.8 32-64 0-38.4 19.2-76.8 57.6-102.4 0-25.6 6.4-76.8 6.4-76.8s0 0 0 0c0-19.2 6.4-51.2 64-70.4 6.4-12.8 12.8-19.2 25.6-25.6 6.4-6.4 12.8-6.4 19.2-6.4h57.6c6.4 0 12.8 0 19.2 6.4 12.8 6.4 19.2 12.8 25.6 25.6 57.6 19.2 64 51.2 64 70.4 0 0 6.4 57.6 6.4 76.8 38.4 25.6 57.6 64 57.6 102.4 0 19.2 12.8 32 32 64 32 44.8 76.8 108.8 76.8 217.6 6.4 166.4-134.4 300.8-307.2 300.8v0zM684.8 305.067c-25.6-32-44.8-64-44.8-108.8 0-19.2-19.2-32-32-44.8h-192c-12.8 12.8-32 25.6-32 44.8 0 44.8-19.2 76.8-44.8 108.8-32 44.8-64 89.6-64 172.8 6.4 121.6 108.8 224 236.8 224s230.4-102.4 230.4-224c0-83.2-32-128-57.6-172.8zM512 842.667c12.8 0 19.2 6.4 19.2 19.2v57.6c0 12.8-6.4 19.2-19.2 19.2s-19.2-6.4-19.2-19.2v-57.6c0-12.8 6.4-19.2 19.2-19.2zM300.8 797.867c6.4-6.4 12.8-6.4 19.2-6.4s6.4 0 12.8 0c6.4 6.4 6.4 19.2 6.4 25.6l-32 51.2c-6.4 12.8-19.2 12.8-25.6 6.4s-12.8-12.8-6.4-25.6l25.6-51.2zM192 682.667l-51.2 32c-12.8 6.4-25.6 0-32-6.4-6.4-12.8 0-25.6 6.4-25.6l51.2-32c0 0 6.4 0 12.8 0s12.8 6.4 19.2 12.8c6.4 6.4 0 12.8-6.4 19.2v0zM147.2 477.867c0 12.8-6.4 19.2-19.2 19.2h-57.6c-12.8 0-19.2-6.4-19.2-19.2s6.4-19.2 19.2-19.2h57.6c12.8 0 19.2 6.4 19.2 19.2zM166.4 298.667l-51.2-32c-6.4-6.4-12.8-19.2-6.4-25.6s12.8-6.4 19.2-6.4c6.4 0 6.4 0 12.8 0l51.2 32c6.4 6.4 12.8 19.2 6.4 25.6-6.4 12.8-19.2 12.8-32 6.4v0zM908.8 273.067l-51.2 25.6c-6.4 6.4-19.2 0-25.6-6.4s0-19.2 6.4-25.6l51.2-32c0 0 6.4 0 12.8 0s12.8 6.4 19.2 12.8c0 6.4-6.4 19.2-12.8 25.6v0zM953.6 497.067h-57.6c-12.8 0-19.2-6.4-19.2-19.2s6.4-19.2 19.2-19.2h57.6c12.8 0 19.2 6.4 19.2 19.2s-6.4 19.2-19.2 19.2v0zM844.8 650.667c6.4 0 6.4 0 12.8 0l51.2 32c6.4 6.4 12.8 19.2 6.4 25.6s-19.2 12.8-25.6 6.4l-57.6-32c-6.4-6.4-12.8-19.2-6.4-25.6s12.8-6.4 19.2-6.4v0zM691.2 791.467c0 0 6.4 0 12.8 0s12.8 6.4 19.2 12.8l32 51.2c6.4 6.4 0 19.2-6.4 25.6s-19.2 0-25.6-6.4l-32-51.2c-6.4-12.8-6.4-25.6 0-32v0zM486.4 356.267c0-19.2 12.8-19.2 25.6-19.2s25.6 6.4 25.6 19.2l19.2 140.8c0 12.8 0 19.2 0 25.6v70.4c0 32-19.2 44.8-44.8 44.8-32 0-44.8-12.8-44.8-44.8v-70.4c0-6.4 0-19.2 0-25.6 0 0 19.2-140.8 19.2-140.8zM512 292.267c-25.6 0-51.2-19.2-51.2-51.2 0-25.6 19.2-51.2 51.2-51.2 25.6 0 51.2 19.2 51.2 51.2s-25.6 51.2-51.2 51.2z" />
<glyph unicode="&#xe90c;" glyph-name="dollar" d="M486.4 836.267v83.2c0 6.4 12.8 19.2 25.6 19.2s25.6-12.8 25.6-19.2v-83.2c0-19.2-12.8-25.6-25.6-25.6s-25.6 6.4-25.6 25.6zM243.2 836.267c0 12.8 0 32 12.8 38.4s25.6 0 32-12.8l44.8-70.4c0-12.8 0-25.6-12.8-32-6.4-6.4-6.4-6.4-12.8-6.4-12.8 0-19.2 6.4-19.2 12.8l-44.8 70.4zM179.2 612.267c0-6.4-12.8-12.8-19.2-12.8 0 0-6.4 0-12.8 6.4l-64 38.4c-19.2 12.8-19.2 25.6-12.8 38.4s25.6 12.8 32 12.8l70.4-44.8c12.8-6.4 19.2-19.2 6.4-38.4zM108.8 401.067h-83.2c-12.8 0-25.6 12.8-25.6 25.6s12.8 19.2 19.2 19.2h83.2c19.2 0 25.6-6.4 25.6-19.2s-6.4-25.6-19.2-25.6zM179.2 241.067c6.4-12.8 0-25.6-12.8-32l-70.4-38.4c0-6.4-6.4-6.4-12.8-6.4s-12.8 0-19.2 12.8c-6.4 12.8-6.4 25.6 6.4 32l70.4 38.4c19.2 6.4 38.4 0 38.4-6.4zM332.8 68.267l-44.8-70.4c-6.4-6.4-12.8-12.8-19.2-12.8s-6.4 0-12.8 6.4c-12.8 6.4-12.8 25.6-12.8 32l44.8 70.4c6.4 12.8 19.2 12.8 32 6.4s12.8-25.6 12.8-32zM537.6 17.067v-83.2c0-12.8-12.8-19.2-25.6-19.2s-19.2 6.4-19.2 25.6v83.2c0 12.8 6.4 19.2 19.2 19.2 12.8 6.4 25.6-6.4 25.6-25.6zM774.4 17.067c6.4-12.8 6.4-25.6-6.4-32-6.4 0-6.4-6.4-12.8-6.4s-12.8 6.4-25.6 12.8l-38.4 70.4c-6.4 12.8-6.4 25.6 6.4 32s25.6 6.4 32-6.4l44.8-70.4zM953.6 170.667c-6.4-6.4-12.8-12.8-25.6-12.8-6.4 0-6.4 0-12.8 6.4l-64 38.4c-12.8 6.4-12.8 25.6-6.4 32 6.4 12.8 25.6 12.8 32 6.4l70.4-38.4c6.4-6.4 12.8-19.2 6.4-32zM1024 426.667c0-12.8-6.4-25.6-25.6-25.6h-83.2c-12.8 0-19.2 12.8-19.2 25.6s6.4 19.2 25.6 19.2h83.2c12.8 6.4 19.2-6.4 19.2-19.2zM838.4 612.267c-6.4 12.8-6.4 25.6 6.4 32l70.4 44.8c12.8 6.4 25.6 0 32-12.8s6.4-25.6-6.4-32l-70.4-44.8c-6.4-6.4-6.4-6.4-12.8-6.4 0 12.8-12.8 12.8-19.2 19.2zM697.6 791.467l38.4 70.4c6.4 12.8 25.6 12.8 32 6.4 12.8-6.4 12.8-25.6 6.4-32l-38.4-70.4c-6.4-6.4-12.8-12.8-25.6-12.8-6.4 0-6.4 0-12.8 0-6.4 6.4-6.4 25.6 0 38.4zM537.6 477.867v121.6c70.4 0 70.4-64 108.8-64 25.6 0 38.4 12.8 38.4 38.4 0 57.6-102.4 96-147.2 96v25.6c0 12.8-6.4 19.2-19.2 19.2-6.4 0-19.2-6.4-19.2-19.2v-32c-76.8-6.4-147.2-44.8-147.2-134.4 0-70.4 51.2-108.8 147.2-121.6v-134.4c-102.4 0-44.8 89.6-115.2 89.6-19.2 0-38.4-12.8-38.4-38.4 0-51.2 51.2-115.2 160-115.2v-38.4c0-6.4 6.4-25.6 19.2-25.6 6.4 0 19.2 6.4 19.2 25.6v38.4c89.6 6.4 153.6 51.2 153.6 134.4 0 96-70.4 115.2-160 134.4zM505.6 484.267c-44.8 12.8-70.4 25.6-70.4 57.6 0 25.6 25.6 51.2 70.4 51.2v-108.8zM537.6 273.067v121.6c32-6.4 76.8-19.2 76.8-57.6 0-44.8-32-64-76.8-64z" />
<glyph unicode="&#xe90d;" glyph-name="magnify" d="M620.8 164.267c0 0 12.8 6.4 19.2 0 51.2-51.2 211.2-211.2 211.2-211.2 44.8-44.8 102.4-51.2 140.8-12.8l6.4 6.4c38.4 38.4 25.6 96-12.8 140.8 0 0-160 160-211.2 211.2-6.4 6.4 0 19.2 0 19.2 96 160 76.8 364.8-64 499.2-160 160-422.4 160-588.8 0s-160-422.4 0-588.8c134.4-134.4 339.2-160 499.2-64v0zM198.4 305.067c-121.6 121.6-121.6 313.6 0 435.2s313.6 121.6 435.2 0 121.6-313.6 0-435.2-313.6-121.6-435.2 0zM569.6 573.867c-44.8 96-153.6 140.8-243.2 96-19.2-6.4-44.8 0-57.6 25.6-6.4 19.2 0 44.8 25.6 57.6 134.4 57.6 294.4-6.4 352-147.2 6.4-19.2 0-44.8-25.6-57.6-6.4 0-12.8-6.4-19.2-6.4-12.8 6.4-25.6 19.2-32 32v0z" />
<glyph unicode="&#xe90e;" glyph-name="member2" horiz-adv-x="1167" d="M940.473 126.973c-15.78 122.958-168.862 314.566-340.183 316.411h-32.789c-171.116-1.845-324.403-193.248-340.183-316.411-10.247-80.333 11.066-128.491 30.944-154.722 16.147-24.536 48.046-45.458 84.995-50.542 52.717-7.043 428.967-7.043 481.019-0.075 31.199 2.372 64.148 21.72 85.42 50.279 19.914 26.775 41.432 74.932 30.775 155.060zM846.82 21.639c-6.077-9.87-18.474-18.338-32.934-20.461-40.021-5.155-420.575-5.155-460.331-0.032-12.245 1.031-25.070 8.879-33.094 20.336-11.592 19.422-18.383 42.642-18.383 67.448 0 10.14 1.135 20.016 3.284 29.506 11.512 81.081 126.887 240.926 269.108 245.024h20.493c140.582-3.688 256.162-163.943 266.409-245.915 1.908-8.418 3.002-18.085 3.002-28.006 0-24.653-6.749-47.73-18.501-67.483l0.335 0.608zM584.101 537.855c1.022-0.019 2.228-0.030 3.437-0.030 110.69 0 200.421 89.732 200.421 200.421s-89.732 200.421-200.421 200.421c-109.165 0-197.947-87.278-200.37-195.863l-0.004-3.709c-0.012-0.798-0.018-1.739-0.018-2.681 0-108.74 87.404-197.066 195.79-198.557l1.165-0.002zM584.101 872.3c0.904 0.022 1.97 0.034 3.038 0.034 74.133 0 134.229-60.096 134.229-134.229s-60.096-134.229-134.229-134.229c-73.039 0-132.453 58.338-134.19 130.959l-0.003 0.162v3.074c-0.004 0.369-0.006 0.806-0.006 1.242 0 72.807 58.502 131.95 131.063 132.985l0.098 0.001zM927.972 472.688c0.897-0.022 1.956-0.034 3.016-0.034 73.34 0 132.794 59.454 132.794 132.794s-59.454 132.794-132.794 132.794c-71.959 0-130.549-57.235-132.732-128.666l-0.005-0.201v-4.099c-0.004-0.369-0.006-0.806-0.006-1.243 0-72.014 57.86-130.516 129.628-131.551l0.098-0.001zM927.972 694.422c0.663 0.018 1.442 0.028 2.225 0.028 49.12 0 88.939-39.819 88.939-88.939s-39.819-88.939-88.939-88.939c-48.317 0-87.636 38.529-88.907 86.54l-0.002 0.118c-0.003 0.248-0.004 0.539-0.004 0.832 0 48.165 38.641 87.303 86.613 88.107l0.076 0.001zM240.23 472.688c0.605-0.010 1.319-0.016 2.033-0.016 73.34 0 132.794 59.454 132.794 132.794s-59.454 132.794-132.794 132.794c-72.614 0-131.616-58.283-132.777-130.62l-0.001-0.109v-2.049c-0.004-0.369-0.006-0.806-0.006-1.243 0-72.014 57.86-130.516 129.628-131.551l1.122-0.001zM240.23 694.422c0.663 0.018 1.442 0.028 2.225 0.028 49.12 0 88.939-39.819 88.939-88.939s-39.819-88.939-88.939-88.939c-48.317 0-87.636 38.529-88.907 86.54l-0.002 0.118c-0.003 0.248-0.004 0.539-0.004 0.832 0 48.165 38.641 87.303 86.613 88.107l0.076 0.001zM182.235 115.292c-46.518 0-84.841 2.254-94.268 2.254-8.072 0.587-16.475 5.525-21.865 12.822-7.417 12.699-11.759 27.849-11.759 44.013 0 6.729 0.753 13.281 2.178 19.579 7.060 54.74 83.293 160.688 177.561 163.352h14.14c14.889-0.071 31.868-3.539 47.454-9.756-62.524-73.061-17.109-9.937 39.565 40.886-20.534 12.935-49.856 21.909-81.184 22.963l-24.893 0.008c-113.326-2.664-214.971-129.926-225.422-211.897-1.734-8.099-2.727-17.404-2.727-26.94 0-28.197 8.681-54.367 23.516-75.981 10.61-15.607 31.702-29.131 56.046-32.287 12.924-1.684 52.476-2.914 100.839-3.118-0.709 8.072-1.113 17.463-1.113 26.948s0.404 18.877 1.197 28.157l-0.083-1.209zM1164.665 199.518c-10.451 81.972-111.892 208.003-225.422 209.438h-21.927c-27.579-0.255-57.165-8.601-82.89-23.015-71.294 61.101-8.807 16.115 41.475-40.026 12.325 4.653 29.128 8.454 46.76 8.936l13.713 0.004c94.268-1.639 171.116-107.793 177.674-162.919 1.241-5.524 1.952-11.869 1.952-18.379 0-16.011-4.3-31.017-11.808-43.927-4.167-6.468-12.603-11.985-22.376-13.094-9.573-1.243-47.895-2.062-94.414-2.473 0.704-8.071 1.104-17.463 1.104-26.948s-0.401-18.878-1.187-28.159c47.831 1.211 88.203 2.851 100.498 4.285 19.655 1.761 41.137 14.689 54.961 33.575 14.6 21.634 23.207 47.998 23.207 76.372 0 9.315-0.927 18.414-2.696 27.209l0.148-0.878z" />
<glyph unicode="&#xe90f;" glyph-name="transfer" horiz-adv-x="1147" d="M0.912-12.010c6.969 5.062 34.688 14.465 64.206 18.024l1016.172 0.103c11.963 0.387 40.658-6.697 66.621-18.692l-1.364-71.943h-1145.636v72.509zM780.379 694.949c14.502-174.021-119.639-257.406-232.027-242.904-93.919 10.195-168.634 85.758-177.585 180.468-2.448 24.724-3.81 52.503-3.81 80.601 0 5.086 0.045 10.162 0.134 15.226-0.094 1.411-0.142 3.962-0.142 6.524 0 112.127 90.897 203.025 203.025 203.025 1.321 0 2.639-0.013 3.954-0.038 1.313 0.044 3.091 0.067 4.874 0.067 111.526 0 201.936-90.41 201.936-201.936 0-4.231-0.13-8.433-0.386-12.599l0.028-28.432zM548.352 321.529c51.614 111.165 2.909-15.664-67.645-127.31-30.242-46.711-33.867-82.965 20.514-119.219-12.809 13.887 15.245-9.853 35.816-39.219-111.95-0.661-217.087-4.286-322.225 2.964-21.752 0-43.505 36.254-65.258 58.007-2.466 4.983-3.909 10.85-3.909 17.053 0 1.656 0.103 3.289 0.303 4.891-10.896 220.96-65.277 159.327 144.998 239.087 25.378 7.25 47.131 18.127 72.509 25.378 105.138 29.004 105.138 29.004 184.896-61.632zM613.61 31.495c112.388 83.385 58.007 163.144 10.877 242.904 14.816-22.762-8.204 23.596-40.291 62.14 25.789 13.994 51.166 32.121 76.545 46.623 13.288 7.644 29.218 12.153 46.201 12.153 5.45 0 10.792-0.464 15.988-1.356 82.828-25.299 162.588-57.928 245.972-86.932 23.61-5.334 40.977-26.13 40.977-50.984 0-3.77-0.399-7.447-1.159-10.99-3.564-46.787-7.19-93.918-14.44-141.049 0.001-0.129 0.001-0.281 0.001-0.432 0-40.7-32.090-73.905-72.349-75.695-101.673-0.006-203.185 3.619-308.323 3.619z" />
<glyph unicode="&#xe910;" glyph-name="file" horiz-adv-x="910" d="M85.933 81.46c-9.549 0.058-17.275 7.783-17.333 17.327v638.63c0.058 9.549 7.783 17.275 17.327 17.333h443.639c9.549-0.058 17.275-7.783 17.333-17.327v-322.723c0.153 2.369 32.489 14.183 66.947 19.606l1.558 303.11c-0.035 47.393-38.445 85.803-85.835 85.838h-345.831v29.3c0.058 9.549 7.783 17.275 17.327 17.333h443.639c9.549-0.058 17.275-7.783 17.333-17.327v-414.544c22.696-0.037 47.19-3.658 70.372-10.367l-1.867 425.112c-0.059 47.42-38.513 85.838-85.94 85.838-0.036 0-0.073 0-0.109 0h-443.421c-47.393-0.035-85.803-38.445-85.838-85.835v-29.304h-29.3c-47.439-0.023-85.903-38.415-86.044-85.825v-638.638c0.059-47.42 38.513-85.838 85.94-85.838 0.036 0 0.073 0 0.109 0h335.917c3.55-11.102-17.854 25.744-30.226 66.518l-305.696 1.781zM190.96 575.646h178.485c18.917 0 34.252 15.335 34.252 34.252s-15.335 34.252-34.252 34.252h-178.485c-18.917 0-34.252-15.335-34.252-34.252s15.335-34.252 34.252-34.252zM424.332 506.934h-233.372c-18.917 0-34.252-15.335-34.252-34.252s15.335-34.252 34.252-34.252h233.372c18.917 0 34.252 15.335 34.252 34.252s-15.335 34.252-34.252 34.252zM455.283 349.703c-5.454 11.882-17.253 19.997-30.949 20.015h-233.374c-18.917 0-34.252-15.335-34.252-34.252s15.335-34.252 34.252-34.252h227.8c-19.784-28.716 4.345 13.849 36.694 48.677zM156.708 198.043c0-0.025 0-0.054 0-0.083 0-18.871 15.298-34.17 34.17-34.17 0.029 0 0.058 0 0.087 0h189.004c0.034 21.316 3.588 46.546 10.17 70.523l-199.384-2.017c-18.813-0.047-34.046-15.309-34.046-34.128 0-0.044 0-0.087 0-0.131zM843.41 206.502c3.837-13.84 6.137-30.266 6.19-47.222 0-105.557-85.546-191.102-191.071-191.102s-191.071 85.546-191.071 191.071c0 105.526 85.546 191.071 191.071 191.071 0.099 0 0.216 0 0.334 0 27.195 0 53.043-5.772 76.384-16.158l27.278 46.077c-30.596 14.849-66.55 23.528-104.533 23.528-134.745 0-243.977-109.232-243.977-243.977 0-0.191 0-0.381 0.001-0.571 0-134.711 109.773-244.484 244.514-244.484s244.514 109.773 244.514 244.514c0 0.016 0 0.036 0 0.055 0 38.034-8.835 74.004-24.564 105.971zM889.011 431.62c-6.712 4.274-14.892 6.813-23.665 6.813-15.894 0-29.842-8.331-37.716-20.865l-177.355-285.142-59.426 84.806c-8.145 11.539-21.423 18.983-36.44 18.983-0.029 0-0.058 0-0.087 0-9.509-0.013-18.412-3.023-25.728-8.144-11.405-8.077-18.854-21.384-18.854-36.43 0-9.579 3.019-18.453 8.158-25.722l97.918-139.759c8.176-11.524 21.478-18.967 36.52-18.983h1.241c15.209 0.267 28.848 8.53 36.62 20.862l213.052 342.298c4.304 6.694 6.862 14.866 6.862 23.636 0 15.855-8.36 29.756-20.911 37.539z" />
<glyph unicode="&#xe911;" glyph-name="paperplus" horiz-adv-x="1008" d="M836.596 213.333h-76.598v74.583h-49.722v-74.583h-76.598v-49.722h76.598v-76.598h49.722v76.598h76.598v49.722zM735.137-85.333c-150.662 0-272.797 122.136-272.797 272.797s122.136 272.797 272.797 272.797c150.662 0 272.797-122.136 272.797-272.797s-122.136-272.797-272.797-272.797v0zM735.137 395.757c-115.038 0-208.293-93.256-208.293-208.293s93.256-208.293 208.293-208.293c115.038 0 208.293 93.256 208.293 208.293v0c0 115.038-93.256 208.293-208.293 208.293zM149.564 561.048h450.519v-54.425h-450.519v54.425zM304.441 730.37h295.642v-54.425h-295.642v54.425zM496.272 207.285c0-6.719-2.016-13.102-2.016-19.822v-14.446l31.58 33.596h-29.564zM419.338 187.464v19.822h-324.198c-18.554 0-33.596 15.041-33.596 33.596v450.183h67.192c0.402-0.005 0.877-0.008 1.352-0.008 60.203 0 109.096 48.427 109.849 108.452l0.001 0.071v81.974h414.235c18.554 0 33.596-15.041 33.596-33.596v-348.723c11.972 2.201 29.241 3.838 46.857 4.030l12.944 0.002v328.902c0.407 3.32 0.639 7.163 0.639 11.060 0 49.147-36.9 89.676-84.506 95.394l-456.688 0.045-206.949-180.408v-521.741c0-60.472 49.050-89.365 109.858-89.365h312.44c-1.594 9.821-2.85 24.846-3.022 40.131zM192.231 865.425v-61.144c0.484-2.725 0.76-5.863 0.76-9.065 0-30.058-24.367-54.425-54.425-54.425-2.996 0-5.936 0.242-8.801 0.708l-80.988-0.042zM497.952 395.085h-348.387v-54.425h310.424c-18.675-28.678 5.403 17 38.291 54.811z" />
<glyph unicode="&#xe912;" glyph-name="paperclip" horiz-adv-x="919" d="M145.74 569.99h439.343v-53.327h-439.343v53.327zM145.134 354.863h439.343l0.606 53.025h-439.343l-0.606-53.025zM296.632 735.122h288.451v-53.327h-288.451v53.327zM833.236 132.465l-123.925-133.621c-17.711-17.712-42.179-28.667-69.205-28.667-54.050 0-97.868 43.816-97.868 97.868 0 24.16 8.755 46.277 23.265 63.349l133.808 145.601 53.934 58.478 13.029 14.241c9.733 10.571 23.639 17.17 39.086 17.17 29.312 0 53.075-23.763 53.075-53.075 0-13.865-5.316-26.488-14.022-35.942l0.034 0.037-60.6-66.053-6.363-6.666-131.803-145.741c-2.6-4.819-7.613-8.037-13.377-8.037-2.528 0-4.912 0.619-7.008 1.714l0.084-0.040c-3.972 2.206-6.616 6.375-6.616 11.163 0 3.74 1.613 7.102 4.182 9.431l187.262 203.622-37.571 34.239-187.251-203.612c-10.56-11.156-17.053-26.256-17.053-42.872 0-17.823 7.47-33.901 19.45-45.274l3.057-2.753c11.358-10.907 26.812-17.623 43.834-17.623 18.654 0 35.425 8.066 47.015 20.901l0.049 1.57 3.332 3.939 133.014 143.317 6.363 6.666 60.6 66.053c20.893 19.028 33.954 46.342 33.954 76.707 0 57.23-46.395 103.625-103.625 103.625-33.164 0-62.688-15.578-81.656-39.818l-13.2-14.469-53.934-58.478-133.924-145.741c-24.237-26.297-39.098-61.559-39.098-100.291 0-81.836 66.341-148.177 148.177-148.177 43.103 0 81.908 18.404 108.985 47.783l124.019 134.633zM478.732 186.701l36.359 38.177h-422.376c-17.845 0.506-32.118 15.094-32.118 33.014 0 0.004 0 0.009 0 0.013v437.827h66.356c59.071 0 106.957 47.886 106.957 106.957v0 79.688h402.378c18.24 0 33.027-14.786 33.027-33.027v0-454.492l37.875 42.419c-7.157-5.329 5.848 7.149 21.291 15.789l0.524 379.923c0.606 60.296-33.936 105.139-92.716 105.139h-434.495l-201.794-176.040v-508.729c0-60.6 47.873-87.262 106.957-87.262h354.505zM187.554 866.925v-60.6c0.408-2.469 0.64-5.315 0.64-8.215 0-29.285-23.74-53.025-53.025-53.025-2.9 0-5.746 0.233-8.52 0.681l-79.081-0.041z" />
<glyph unicode="&#xe913;" glyph-name="atm" d="M1018.020 68.945c-63.252-9.488-123.342-22.138-192.92-34.789v85.391c34.789 3.163 69.578 3.163 107.529 6.325 0 18.976 3.163 34.789 3.163 50.602v597.735c0 53.765-15.813 79.066-75.903 79.066-234.034-3.163-464.906-3.163-698.939 0-53.765 0-72.74-15.813-72.74-72.74 3.163-218.221 0-433.279 0-654.662 37.951-3.163 72.74-3.163 110.692-6.325v-82.228c-66.415 9.488-129.668 22.138-192.92 31.626v771.679c37.951 75.903 101.204 98.041 183.432 94.879 208.733-3.163 417.466-6.325 626.198 0 88.553 3.163 154.969-18.976 196.083-98.041 6.325-253.010 6.325-509.182 6.325-768.517zM271.641-73.373c2.716-11.96-15.19 29.254-24.869 73.544-3.595 65.611-0.432 132.026-0.432 198.442-28.464 3.163-47.439 3.163-72.74 6.325v145.481h686.288v-145.481c-22.138-3.163-44.277-6.325-72.74-9.488 0-66.415 3.163-129.668 0-196.083 0.688-12.217-9.396-46.692-25.925-77.161-166.995 4.42-328.289 4.42-489.583 4.42zM591.066 12.018c135.993 66.415 123.342 164.456 110.692 262.498-41.114 9.488-66.415 9.488-88.553-37.951-16.993-33.004-53.787-60.151-97.33-66.332-40.482 3.101-78.195 28.897-98.418 65.668-25.636 51.267-50.937 48.105-95.214 35.454v-148.643c-0.119-1.201-0.186-2.596-0.186-4.006 0-12.037 4.909-22.927 12.832-30.779 25.304-25.304 53.768-47.442 88.556-75.906h167.619zM287.454 774.211h452.255v-300.449h-452.255v300.449zM243.177 663.519v-72.74h-72.74v69.578c22.138 0 44.277 3.163 72.74 3.163zM856.726 590.778h-72.74v69.578h72.74v-69.578zM240.014 704.633h-69.578v69.578h69.578v-69.578zM783.986 704.633v69.578c22.138 0 44.277 3.163 72.74 3.163v-72.74h-72.74zM240.014 473.761h-69.578v69.578h69.578v-69.578zM856.726 543.339v-69.578h-69.578v69.578h69.578z" />
<glyph unicode="&#xe914;" glyph-name="credit-card" horiz-adv-x="1279" d="M1171.42 938.665h-1063.841c-75.704 0-107.58-31.875-107.58-107.58v-808.837c0-75.704 31.875-107.58 107.58-107.58h1063.841c75.704 0 107.58 31.875 107.58 107.58v808.837c0 71.72-31.875 107.58-107.58 107.58zM980.168 819.133c0.36 0.009 0.784 0.013 1.209 0.013 30.147 0 54.587-24.439 54.587-54.587 0-0.425-0.005-0.849-0.015-1.272 0.010-0.297 0.015-0.721 0.015-1.146 0-30.147-24.439-54.587-54.587-54.587-0.425 0-0.849 0.005-1.272 0.015-0.297-0.010-0.721-0.015-1.146-0.015-30.147 0-54.587 24.439-54.587 54.587 0 0.425 0.005 0.849 0.015 1.272-0.010 0.297-0.015 0.721-0.015 1.146 0 30.147 24.439 54.587 54.587 54.587 0.425 0 0.849-0.005 1.272-0.015zM840.713 819.133c0.36 0.009 0.784 0.013 1.209 0.013 30.147 0 54.587-24.439 54.587-54.587 0-0.425-0.005-0.849-0.015-1.272 0.010-0.297 0.015-0.721 0.015-1.146 0-30.147-24.439-54.587-54.587-54.587-0.425 0-0.849 0.005-1.272 0.015-0.297-0.010-0.721-0.015-1.146-0.015-30.147 0-54.587 24.439-54.587 54.587 0 0.425 0.005 0.849 0.015 1.272-0.010 0.297-0.015 0.721-0.015 1.146 0 30.147 24.439 54.587 54.587 54.587 0.425 0 0.849-0.005 1.272-0.015zM1171.42-17.597h-1059.857v637.508h1059.857v-637.508zM1115.639 711.553c-0.36-0.009-0.784-0.013-1.209-0.013-30.147 0-54.587 24.439-54.587 54.587 0 0.425 0.005 0.849 0.015 1.272-0.010 0.297-0.015 0.721-0.015 1.146 0 30.147 24.439 54.587 54.587 54.587 0.425 0 0.849-0.005 1.272-0.015 0.297 0.010 0.721 0.015 1.146 0.015 30.147 0 54.587-24.439 54.587-54.587 0-0.425-0.005-0.849-0.015-1.272 0.010-0.297 0.015-0.721 0.015-1.146 0-30.147-24.439-54.587-54.587-54.587-0.425 0-0.849 0.005-1.272 0.015zM286.878 404.753c-0.257-2.483-0.403-5.365-0.403-8.281 0-25.154 10.892-47.764 28.217-63.371 15.964-15.627 47.7-31.319 82.931-35.842l0.818-147.51c-23.541 1.31-46.125 15.16-59.581 35.561-7.236 15.699-11.834 35.315-12.137 55.971l-47.815 0.11c-0.334-3.353-0.524-7.246-0.524-11.184 0-22.318 6.117-43.208 16.765-61.084 21.925-33.239 59.672-55.236 102.556-55.236 0.259 0 0.518 0.001 0.777 0.002l-0.040-47.813h27.891v47.813c22.562 0.448 49.554 9.378 72.298 24.261 26.521 19.666 43.901 51.495 43.901 87.383 0 4.183-0.236 8.31-0.696 12.37 0.133 0.963 0.182 2.671 0.182 4.39 0 28.987-14.070 54.688-35.754 70.646 2.926 2.036-37.652 21.654-81.876 31.658l-2.040 131.874c1.806 0.257 3.892 0.403 6.013 0.403 18.839 0 34.976-11.571 41.692-27.994-12.146 27.289 2.177-0.373 11.536-30.231l48.339-1.945c0 0.021 0 0.046 0 0.070 0 26.4-10.654 50.312-27.896 67.67-20.61 17.365-47.463 27.921-76.782 27.921-1.020 0-2.037-0.013-3.051-0.038l0.15 39.847h-27.891v-39.844c-1.295 0.057-2.813 0.090-4.339 0.090-29.565 0-56.27-12.243-75.322-31.937-17.367-18.728-28.005-43.854-28.005-71.465 0-1.501 0.031-2.995 0.094-4.48zM334.692 408.737c0.068 15.615 4.498 31.002 12.187 44.265 9.781 11.934 24.965 19.776 41.981 19.776 1.972 0 3.92-0.105 5.838-0.311l-0.238-127.481c-8.154-0.108-27.86 7.844-44.111 20.126-9.627 11.345-15.659 26.472-15.659 43.008 0 0.217 0.001 0.434 0.003 0.65zM422.349 149.75v139.455c0.767 2.023 24.265-6.795 44.38-20.27 14.106-10.588 23.495-27.883 23.495-47.37 0-1.436-0.051-2.859-0.151-4.269 0.016-0.14 0.019-0.529 0.019-0.919 0-12.643-2.944-24.599-8.185-35.218-9.401-18.881-29.026-31.945-51.702-31.945-2.771 0-5.496 0.195-8.163 0.572zM637.508 313.111c0.222 24.114 19.712 43.606 43.808 43.829 24.136-0.222 43.627-19.712 43.85-43.807-0.222-24.136-19.712-43.627-43.807-43.85-24.136 0.222-43.627 19.712-43.85 43.807zM784.932 313.111c0.222 24.114 19.712 43.606 43.808 43.829 24.136-0.222 43.627-19.712 43.85-43.807-0.222-24.136-19.712-43.627-43.807-43.85-24.136 0.222-43.627 19.712-43.85 43.807zM912.433 313.111c0.222 24.114 19.712 43.606 43.808 43.829 24.136-0.222 43.627-19.712 43.85-43.807-0.222-24.136-19.712-43.627-43.807-43.85-24.136 0.222-43.627 19.712-43.85 43.807z" />
<glyph unicode="&#xe915;" glyph-name="bank" horiz-adv-x="1009" d="M508.605 937.173c-1.387 0.683-3.020 1.082-4.746 1.082s-3.358-0.399-4.81-1.11l-487.612-318.275c-6.872-3.39-11.517-10.348-11.517-18.39 0-2.573 0.475-5.035 1.342-7.302 2.905-4.939 8.319-8.299 14.52-8.299 1.306 0 2.577 0.149 3.797 0.431l973.049-0.022c0.238-0.013 0.517-0.021 0.798-0.021 7.96 0 14.503 6.067 15.258 13.829l0.005 0.063c0.004 0.145 0.007 0.315 0.007 0.485 0 6.746-3.813 12.602-9.401 15.53l-481.202 318.35c-2.136 2.274-5.163 3.69-8.52 3.69-0.342 0-0.68-0.015-1.014-0.043zM508.605 898.48l428.542-279.611h-855.623zM194.682 541.484c-9.103-1.121-16.082-8.807-16.082-18.122 0-0.302 0.007-0.603 0.022-0.902l-0.002-402.218c-0.013-0.257-0.020-0.557-0.020-0.86 0-9.315 6.979-17 15.993-18.113 0.543-0.051 1.071-0.075 1.604-0.075 9.186 0 16.72 7.069 17.461 16.064l0.004 0.063v404.45c0 0.016 0 0.034 0 0.052 0 10.776-8.338 19.604-18.914 20.386l-0.067 0.004zM507.875 541.484c-8.758-1.445-15.356-8.963-15.356-18.020 0-0.338 0.009-0.674 0.027-1.008l-0.002-402.214c-0.118-0.768-0.185-1.653-0.185-2.555 0-9.78 7.927-17.707 17.707-17.707 8.878 0 16.23 6.533 17.509 15.054l0.012 0.098v406.641c-2.038 10.035-10.549 17.888-21.068 18.972l-0.103 0.009zM818.878 541.484c-9.103-1.121-16.082-8.807-16.082-18.122 0-0.302 0.007-0.603 0.022-0.902l-0.002-402.218c-0.044-0.475-0.069-1.027-0.069-1.584 0-9.333 7.005-17.029 16.043-18.119 0.542-0.050 1.070-0.074 1.603-0.074 9.186 0 16.72 7.069 17.461 16.064l0.004 0.063v405.18c-0.692 10.143-8.782 18.254-18.915 18.977l-0.066 0.004zM161.83 55.998c-1.395 0.637-3.028 1.008-4.746 1.008s-3.349-0.371-4.819-1.038l-140.827-108.749c-2.923-3.417-4.701-7.889-4.701-12.776s1.778-9.359 4.724-12.803c0.367-1.188 4.455-4.6 9.304-6.487l971.866-0.056c0.223-0.012 0.484-0.018 0.747-0.018 8.217 0 14.924 6.464 15.313 14.584s0.001 0.035 0.001 0.035v0c0.001 0.054 0.001 0.119 0.001 0.183 0 5.301-2.568 10.001-6.528 12.927l-139.484 108.079c-1.395 0.637-3.028 1.008-4.746 1.008s-3.349-0.371-4.819-1.038l-694.208 0.030zM167.671 20.955h684.061l91.257-73.006h-868.764z" />
<glyph unicode="&#xe916;" glyph-name="key" horiz-adv-x="1016" d="M191.823 193.826c-0.217 0.002-0.473 0.003-0.73 0.003-43.736 0-79.192-35.455-79.192-79.192s35.455-79.192 79.192-79.192c43.477 0 78.771 35.036 79.188 78.415v0.039c0 0.001 0 0.002 0 0.003 0 43.478-35.038 78.773-78.419 79.188h-0.039zM191.823 67.706c-25.915 0.003-46.922 21.012-46.922 46.928 0 25.918 21.010 46.928 46.928 46.928 25.66 0 46.51-20.594 46.922-46.156v-0.039c0.004-0.22 0.006-0.479 0.006-0.739 0-25.662-20.598-46.513-46.162-46.922h-0.038zM1016.001 865.486l-73.325 73.325-91.657-16.132-391.558-382.759-41.796 9.532-52.794-57.194c-21.484 5.632-46.149 8.866-71.568 8.866-161.986 0-293.302-131.316-293.302-293.302s131.316-293.302 293.302-293.302c161.986 0 293.302 131.316 293.302 293.302 0 28.705-4.123 56.447-11.81 82.665l45.25 42.655-5.133 53.528 61.593 62.327 54.994-4.4 115.854 114.388-8.799 13.199h19.798l55.727 56.461-20.531 42.529 17.598 14.665h68.193v61.593l24.197 25.664zM502.723 416.002l458.284 458.284 12.465-16.132-461.951-458.284zM429.398 517.924l39.596-13.199 394.491 387.892 65.26 11.732 13.199-16.132-462.684-458.284c10.142-3.070-31.736 29.713-80.184 49.878zM291.546-51.814c-142.636 0.419-258.102 116.144-258.102 258.838 0 142.953 115.886 258.839 258.839 258.839s258.839-115.886 258.839-258.839c0-0.515-0.002-1.030-0.005-1.545v0.079c-1.244-142.004-116.65-256.64-258.829-256.64-0.261 0-0.522 0-0.783 0.001h0.040zM951.474 718.836h-54.994l-42.529-38.863 24.197-46.928-29.33-27.864-59.394 16.865 15.398-55.727-90.19-85.791-51.328 5.133-83.591-85.058 5.133-53.528-24.197-24.197c12.855-24.424-4.068 16.371-28.499 51.562l440.588 438.986v-25.664l-25.664-27.13v-41.796h4.4z" />
<glyph unicode="&#xe917;" glyph-name="flag" horiz-adv-x="870" d="M869.848 605.379h-398.902v-42.325h282.942l-179.448-153.357 185.826-185.826h-434.849l93.928 107.843 5.218 6.667v438.328h-355.127v70.736c16.095 8.011 26.961 24.347 26.961 43.22 0 26.578-21.546 48.123-48.123 48.123s-48.123-21.546-48.123-48.123c0-18.874 10.865-35.209 26.682-43.094l0.279-933.023h42.325v423.833h189.015v-156.836h605.020l-225.541 225.831zM69.435 735.253h313.671v-353.677h-313.671v353.677zM369.771 338.38l-69.286-79.143v79.143h69.286z" />
<glyph unicode="&#xe918;" glyph-name="money" horiz-adv-x="717" d="M451.472 662.19h-185.781c-50.469 0-265.506-89.233-265.506-264.774v-365.71c-0.103-1.792-0.162-3.888-0.162-5.997 0-59.399 46.584-107.919 105.211-111.019l499.105-0.012c0.438-0.006 0.955-0.010 1.472-0.010 60.89 0 110.347 48.951 111.166 109.646l0.001 0.077v373.025c0 175.541-215.038 264.774-265.506 264.774zM684.065 28.779c0.040-0.936 0.062-2.034 0.062-3.138 0-41.59-32.141-75.672-72.938-78.765l-498.364-0.016c-0.218-0.002-0.476-0.003-0.735-0.003-43.371 0-78.578 34.953-78.99 78.226v372.332c0 151.405 195.289 232.592 233.324 232.592h185.049c37.303 0 232.592-81.188 232.592-232.592v-365.71zM253.257 717.778h199.678v-32.183h-199.678v32.183zM229.12 817.251c-17.772 12.9 3.741-0.3 21.228-17.57 4.17-8.396 6.62-18.306 6.62-28.788 0-0.931-0.019-1.858-0.058-2.78l0.004-26.931h195.289v27.794c-0.026 0.697-0.041 1.516-0.041 2.339 0 10.585 2.444 20.6 6.799 29.51-16.59-16.125 0.227 2.667 20.521 16.817 21.338 8.553 40.671 30.547 47.207 57.537l0.12 63.487h-344.5v-62.902c3.577-23.558 21.656-46.778 46.3-58.298zM215.223 905.753h277.94v-29.989c-1.703-7.274-15.226-22.628-32.481-31.968 7.595 7.204-12.975-6.744-28.819-24.92-7.885-12.354-12.965-28.306-13.304-45.421l-125.806-0.091c-0.17 15.64-5.335 31.942-14.116 45.715 8.798-7.405-7.987 11.031-28.49 24.173-8.724 2.042-24.735 15.105-34.719 32.13l-0.207 30.371zM430.261 288.433l-35.84 13.897c-8.265 1.707-14.451 8.883-14.628 17.535v73.161q0 12.434 15.36 5.12c9.848-5.99 18.311-18.288 20.448-32.65 1.717-7.056 7.761-12.011 14.961-12.011 0.409 0 0.814 0.016 1.215 0.047l36.518-0.003c0.732-0.153 1.573-0.241 2.435-0.241 6.867 0 12.434 5.567 12.434 12.434 0 0.862-0.088 1.703-0.255 2.515-2.592 49.318-39.73 89.908-87.877 97.847-8.856 0.848-15.26 7.731-15.26 16.11 0 0.28 0.007 0.558 0.021 0.835l-0.002-0.039c0.748 1.551 1.185 3.373 1.185 5.297 0 5.185-3.174 9.629-7.685 11.495l-24.951 0.030c-0.504 0.072-1.087 0.114-1.679 0.114-6.867 0-12.434-5.567-12.434-12.434 0-0.816 0.079-1.614 0.229-2.387 0.048-0.409 0.082-0.972 0.082-1.544 0-6.934-5.079-12.682-11.719-13.727-16.276-1.095-43.745-15.092-64.44-35.847-16.322-17.77-26.325-41.565-26.325-67.695 0-7.37 0.796-14.555 2.306-21.472 9.868-37.639 43.643-70.271 86.146-79.651 9.036-1.85 15.223-9.026 15.4-17.678v-81.938q0-11.703-15.36-7.314c-16.717 9.427-27.821 27.069-27.821 47.304 0 0.598 0.010 1.195 0.029 1.788-0.002 7.993-6.552 14.542-14.631 14.542h-40.229c-1.856 1.162-4.112 1.851-6.528 1.851-6.867 0-12.434-5.567-12.434-12.434 0-1.449 0.248-2.84 0.703-4.133 0.357-44.752 25.369-84.144 62.263-104.921-0.422-1.126 16.972-7.901 35.575-11.161 0.877-0.127 0.877-0.127 0.877-0.127 8.079 0 14.629-6.549 14.629-14.629v0c-0.017-0.244-0.027-0.528-0.027-0.815 0-6.361 4.777-11.607 10.939-12.345l22.002-0.006c0.467-0.059 1.007-0.092 1.555-0.092 7.271 0 13.166 5.894 13.166 13.166 0 0.548-0.033 1.088-0.099 1.619-0.097 0.574-0.156 1.309-0.156 2.057 0 6.166 4.015 11.393 9.573 13.211l0.098 0.028c9.354-0.244 30.722 5.17 49.977 14.312 9.473 1.756 27.691 16.094 39.034 35.023 9.172 16.31 14.443 35.321 14.443 55.563 0 8.442-0.917 16.669-2.656 24.588-5.235 28.564-28.858 55.203-59.923 65.616zM333.713 338.17q0-12.434-15.36-4.389c-11.838 6.016-19.807 18.104-19.807 32.054 0 10.854 4.825 20.58 12.446 27.153l9.555 7.353q14.629 5.851 14.629-5.851v-54.856zM425.141 191.885c-1.456-16.066-12.799-30.176-28.225-35.745q-14.929-4.483-14.929 7.219v65.828c-0.118 0.516-0.185 1.109-0.185 1.718 0 3.73 2.538 6.867 5.981 7.778l5.908 0.013c18.356-4.313 31.812-20.548 31.812-39.925 0-1.912-0.131-3.794-0.385-5.637l0.024 0.214z" />
<glyph unicode="&#xe919;" glyph-name="pen" horiz-adv-x="1027" d="M744.935 938.667l-701.839-705.947-43.137-318.053 342.36 58.544 684.721 684.721zM102.667 71.81l16.776 122.907 5.82 5.82h45.876l11.298-102.708h119.141v-49.3l-149.269-25.335zM298.155 151.238l557.705 560.786 55.462-55.462-555.651-556.336v51.012h-57.517zM745.278 823.634l54.093-54.093-574.481-575.85-6.847 60.255h-38.344z" />
<glyph unicode="&#xe91a;" glyph-name="wallet" horiz-adv-x="944" d="M762.178 218.028c0-16.163-13.103-29.266-29.266-29.266s-29.266 13.103-29.266 29.266c0 16.163 13.103 29.266 29.266 29.266s29.266-13.103 29.266-29.266zM849.662 521.389v322.872c0 52.139-42.267 94.407-94.407 94.407h-283.221c-52.139 0-94.407-42.267-94.407-94.407v-3.147h-2.832c-52.139 0-94.407-42.267-94.407-94.407v-3.462h-3.462c-52.139 0-94.407-42.267-94.407-94.407s42.267-94.407 94.407-94.407c52.139 0 94.407 42.267 94.407 94.407s-42.267 94.407-94.407 94.407c-52.139 0-94.407-42.267-94.407-94.407v-125.876c-19.72 4.58-34.221 21.984-34.301 42.789v76.164h-53.812c-52.139 0-94.407-42.267-94.407-94.407v-538.434c0-52.139 42.267-94.407 94.407-94.407h755.255c52.139 0 94.407 42.267 94.407 94.407v512.315h-94.407zM427.663 844.26c-0.003 0.188-0.004 0.411-0.004 0.634 0 24.633 19.793 44.644 44.343 44.996h283.254c24.274-0.523 43.752-20.325 43.752-44.676 0-0.335-0.004-0.67-0.011-1.004l0.001 0.050v-322.872h-48.777v225.947c0 52.139-42.267 94.407-94.407 94.407h-228.15v2.518zM330.109 746.706c0 24.679 20.007 44.686 44.686 44.686h283.221c24.679 0 44.686-20.007 44.686-44.686v0-225.947h-50.036v129.023c0 52.139-42.267 94.407-94.407 94.407h-228.465v2.518zM276.927 694.468h283.221c24.679 0 44.686-20.007 44.686-44.686v0-128.393h-372.593v128.393c0 24.679 20.007 44.686 44.686 44.686v0zM895.292 120.474h-204.863c-24.679 0-44.686 20.007-44.686 44.686 0 0 0 0 0 0v0 105.736c0 24.679 20.007 44.686 44.686 44.686 0 0 0 0 0 0h204.863v-195.108zM895.292 364.673h-204.863c-52.139 0-94.407-42.267-94.407-94.407v-105.736c0-52.139 42.267-94.407 94.407-94.407h204.863v-62.938c-0.349-24.412-20.22-44.067-44.682-44.067-0.333 0-0.666 0.004-0.998 0.011l-755.206-0.001c-24.679 0-44.686 20.007-44.686 44.686 0 0 0 0 0 0v0 540.322c0.351 24.471 20.186 44.197 44.669 44.371h5.681v-27.063c0-52.139 42.267-94.407 94.407-94.407h700.814v-106.365z" />
<glyph unicode="&#xe91b;" glyph-name="scy" horiz-adv-x="798" d="M384.343 523.572l-7.64-6.081c-7.341-6.246-11.967-15.492-11.967-25.818 0-13.463 7.863-25.089 19.247-30.537 9.871-5.077 14.86-3.674 14.86 3.966v53.013q-0.624 10.915-14.501 5.457zM417.71 936.137s-111.327-202.696-416.775-213.611c-0.935-225.149 119.279-658.452 393.543-805.329 316.674 209.713 403.522 548.528 400.715 815.619-200.046-4.834-313.712 88.718-377.483 203.32zM61.9 669.669s242.456 12.629 336.165 165.743c31.184-28.69-15.592-183.986-285.179-216.106 20.737-179.776 37.733-398.844 275.199-649.877-69.384 45.061-297.808 245.574-326.185 700.238zM497.074 247.749c-1.348-2.108-20.599-9.515-41.218-12.825-7.156-1.082-11.907-6.444-11.907-12.916 0-0.6 0.041-1.19 0.119-1.769l-0.008 0.068c0.073-0.501 0.114-1.078 0.114-1.665 0-6.152-4.568-11.238-10.498-12.049l-21.58-0.007c-0.799-0.195-1.716-0.306-2.66-0.306-6.459 0-11.694 5.236-11.694 11.694 0 0.162 0.003 0.324 0.010 0.486 0.009 0.169 0.014 0.395 0.014 0.622 0 7.481-5.854 13.594-13.231 14.010l-0.037 0.002c0.249-1.329-17.348 3.347-33.269 10.964-33.696 18.859-57.341 55.502-58.254 97.743-0.098 0.687-0.152 1.332-0.152 1.991 0 6.459 5.236 11.694 11.694 11.694 0.659 0 1.305-0.055 1.933-0.159l34.858 0.009c0.662 0.114 1.423 0.179 2.2 0.179 6.73 0 12.314-4.9 13.382-11.327l0.011-0.079c0.017-0.257 0.026-0.556 0.026-0.858s-0.010-0.601-0.028-0.899c-0.014-0.436-0.023-0.996-0.023-1.557 0-19.431 10.803-36.339 26.731-45.044 9.935-2.785 14.924-0.134 14.924 6.727v75.621c-0.283 8.066-6.076 14.795-13.76 16.506-37.367 6.586-70.455 36.339-82.546 75.328-1.294 6.128-1.913 12.271-1.913 18.559 0 24.745 9.607 47.246 25.295 63.977 7.404 11.142 31.837 27.761 60.033 34.994 7.177 1.303 11.896 6.728 11.896 13.255 0 0.562-0.035 1.115-0.102 1.66-0.074 0.451-0.119 1.045-0.119 1.65 0 5.787 4.204 10.592 9.725 11.529l22.053 0.010c0.72 0.153 1.548 0.242 2.397 0.242 6.631 0 12.005-5.375 12.005-12.005 0-0.415-0.021-0.824-0.062-1.228 0.004 0.023 0.004-0.011 0.004-0.044 0-8.007 6.036-14.604 13.805-15.491q79.747-21.212 83.645-93.559c0.148-0.698 0.233-1.5 0.233-2.321 0-6.459-5.236-11.694-11.694-11.694-0.633 0-1.253 0.050-1.859 0.147l-33.301-0.009c-0.053-0.001-0.114-0.001-0.176-0.001-7.786 0-14.239 5.708-15.404 13.167l-0.011 0.088c-1.079 11.348-8.662 23.502-19.645 31.082q-14.501 6.962-14.501-4.575v-72.035c0.548-7.439 5.951-13.708 13.131-15.565q15.714-6.108 32.553-13.28 48.803-22.452 55.975-61.433c1.684-7.181 2.649-15.427 2.649-23.898 0-18.759-4.732-36.413-13.069-51.833-2.963-8.912-18.624-24.704-38.152-33.354zM454.975 370.77c-0.993 0.506-2.166 0.803-3.409 0.803-4.219 0-7.64-3.421-7.64-7.64 0-0.504 0.049-0.997 0.142-1.475l-0.008-62.32q0-10.915 13.877-6.861c13.585 4.395 24.447 16.987 26.638 32.372 3.767 19.549-6.056 33.894-29.6 43.405v0 1.715z" />
<glyph unicode="&#xe91c;" glyph-name="mail-envelope-closed" d="M170.080 641.902l247.52-215.235-247.581-215.287c-6.206 5.878-10.019 14.235-10.019 23.507v383.562c0 9.253 3.874 17.582 10.080 23.454zM885.981 641.954c6.206-5.878 10.019-14.235 10.019-23.507v-383.562c0-9.252-3.874-17.582-10.080-23.454l-247.52 215.235 247.581 215.287zM614.459 405.848l233.541-203.181h-640l233.541 203.181 86.459-75.181 86.459 75.181zM192.115 682.667c-35.41 0-64.115-28.624-64.115-63.81v-384.38c0-35.241 28.472-63.81 64.115-63.81h671.77c35.41 0 64.115 28.624 64.115 63.81v384.38c0 35.241-28.472 63.81-64.115 63.81h-671.77zM528 372.267l-320 278.4h640l-320-278.4z" />
<glyph unicode="&#xe91d;" glyph-name="check-fail" d="M233.672 251.992l99.93-99.93 179.682 179.682 179.682-179.682 99.93 99.93-180.003 178.722 179.682 179.682-99.93 99.93-179.682-179.682-179.682 179.682-99.611-98.97 179.363-180.644zM886.424 433.275c0.103-3.258 0.161-7.090 0.161-10.936 0-206.254-167.202-373.459-373.459-373.459s-373.459 167.202-373.459 373.459c0 3.846 0.058 7.678 0.173 11.494 0.168 204.738 166.546 371.116 371.825 371.298 205.717-0.884 372.412-166.677 374.755-371.955zM993.399 433.275c0.007 0.955 0.012 2.085 0.012 3.213 0 263.569-213.664 477.233-477.233 477.233-1.13 0-2.259-0.004-3.388-0.013-211.217 0.001-440.225-136.762-480.261-431.429v-96.087c-2.098 5.19 3.183-35.837 12.623-75.247 49.051-212.486 239.967-371.333 467.984-371.333 265.338 0 480.434 215.098 480.434 480.434 0 4.538-0.063 9.061-0.188 13.57z" />
<glyph unicode="&#xe91e;" glyph-name="check-pass" horiz-adv-x="1078" d="M862.264 324.652c-44.883-152.462-183.567-261.86-347.804-261.86-199.875 0-361.905 162.031-361.905 361.905 0 0.978 0.004 1.955 0.012 2.931 0.171 199.223 161.835 360.782 361.232 360.782 77.932 0 150.101-24.678 209.115-66.645l87.936 84.087c-80.61 62.877-183.348 100.815-294.949 100.815-0.856 0-1.713-0.002-2.569-0.007-214.256 0.001-434.355-134.413-478.375-431.464v-93.753c0-20.498 26.546-117.275 26.546-120.299 69.907-185.174 245.665-314.477 451.627-314.477 265.943 0 481.532 215.59 481.532 481.532 0 0.339 0 0.675-0.001 1.014 0 13.053 0 26.158 0 38.927zM350.488 578.358l-129.037-129.037 316.875-305.45 504.717 504.717-129.037 117.611-375.681-375.681-187.842 187.842z" />
<glyph unicode="&#xe91f;" glyph-name="delete" d="M870.733 817.494h-174.611v81.284c-0.068 22.053-17.927 39.911-39.973 39.979h-284.923c-22.053-0.068-39.911-17.927-39.979-39.973v-81.171h-177.862c-22.053-0.068-39.911-17.927-39.979-39.973v-62.867h797.189v62.859c-0.135 21.958-17.9 39.723-39.846 39.86zM639.283 817.494h-251.078v46.12c0 0 0 0.001 0 0.001 0 11.040 8.95 19.991 19.991 19.991 0.086 0 0.169 0 0.253-0.001h210.845c11.040 0 19.991-8.95 19.991-19.991v-46.12zM145.795-45.444c0.068-22.053 17.927-39.911 39.973-39.979h654.136c22.053 0.068 39.911 17.927 39.979 39.973v700.015h-734.57v-700.009zM662.524 539.201c0 11.040 8.95 19.991 19.991 19.991h18.786c0.071 0.001 0.156 0.001 0.241 0.001 11.040 0 19.991-8.95 19.991-19.991 0 0 0-0.001 0-0.001v-505.77c0-11.040-8.95-19.991-19.991-19.991h-19.027c-11.040 0-19.991 8.95-19.991 19.991v505.77zM483.096 539.201c0 11.040 8.95 19.991 19.991 19.991h18.786c11.040 0 19.991-8.95 19.991-19.991v-505.77c0-11.040-8.95-19.991-19.991-19.991h-18.786c-11.040 0-19.991 8.95-19.991 19.991v505.77zM303.669 539.201c0 0.001 0 0.003 0 0.006 0 11.040 8.95 19.991 19.991 19.991 0.169 0 0.339-0.002 0.507-0.006h18.76c11.040 0 19.991-8.95 19.991-19.991v-505.77c0-11.040-8.95-19.991-19.991-19.991h-18.786c-11.040 0-19.991 8.95-19.991 19.991v505.77z" />
<glyph unicode="&#xe920;" glyph-name="change-line" d="M288.517 640.522h616.439l-152.287-167.626 28.717-25.998 193.189 212.66-187.314 218.532-29.478-25.127 148.808-174.043h-618.071c-132.168 0-239.309-107.143-239.309-239.309h38.724c0 0.128 0 0.282 0 0.437 0 110.721 89.757 200.475 200.475 200.475 0.039 0 0.076 0 0.115 0zM735.481 212.921h-616.439l152.287 167.626-28.717 25.998-193.080-212.55 187.206-218.751 29.369 25.237-148.808 174.043h618.181c132.168 0 239.309 107.143 239.309 239.309h-39.051c0-0.128 0-0.282 0-0.437 0-110.642-89.632-200.353-200.249-200.475z" />
<glyph unicode="&#xe921;" glyph-name="calendar" horiz-adv-x="887" d="M846.744 812.275h-215.326v97.938c0.014 0.321 0.021 0.698 0.021 1.076 0 14.484-11.28 26.334-25.535 27.244l-9.294 0.004c-14.334-0.914-25.614-12.764-25.614-27.248 0-0.378 0.008-0.755 0.023-1.13l-0.002-97.884h-254.228v97.938c0.014 0.321 0.021 0.698 0.021 1.076 0 14.484-11.28 26.334-25.535 27.244l-8.952 0.004c-14.487-0.737-25.955-12.663-25.955-27.267 0-0.372 0.007-0.742 0.022-1.11l-0.002-97.885h-215.326c-22.677-1.058-40.663-19.7-40.663-42.544 0-0.76 0.020-1.515 0.059-2.264l-0.004-807.964c-0.028-0.577-0.044-1.253-0.044-1.933 0-22.887 17.954-41.581 40.547-42.767l805.787-0.004c22.698 1.19 40.652 19.884 40.652 42.771 0 0.68-0.016 1.356-0.047 2.027l0.004 807.974c0.035 0.645 0.055 1.4 0.055 2.159 0 22.843-17.985 41.486-40.569 42.54zM857.322-40.498c0.008-0.156 0.012-0.339 0.012-0.523 0-5.949-4.685-10.804-10.566-11.078l-805.706-0.001c-5.927 0.404-10.582 5.311-10.582 11.305 0 0.105 0.001 0.209 0.004 0.313v808.054c-0.008 0.156-0.012 0.339-0.012 0.523 0 5.949 4.685 10.804 10.566 11.078l215.351 0.001v-31.053c-32.102-15.019-53.942-47.047-53.942-84.175 0-0.76 0.009-1.517 0.027-2.271-0.241-2.275-0.378-5.048-0.378-7.852 0-46.758 37.905-84.663 84.663-84.663s84.663 37.905 84.663 84.663c0 2.804-0.136 5.577-0.403 8.311 0.044 0.302 0.053 1.066 0.053 1.833 0 37.212-22.004 69.286-53.711 83.918l-0.573 31.29h254.228v-31.053c-32.292-15.027-54.276-47.198-54.276-84.504 0-0.644 0.007-1.287 0.020-1.928-0.241-2.291-0.377-5.064-0.377-7.868 0-46.758 37.905-84.663 84.663-84.663s84.663 37.905 84.663 84.663c0 2.804-0.136 5.577-0.403 8.311 0.043 0.296 0.053 1.054 0.053 1.813 0 37.128-21.84 69.156-53.374 83.936l-0.568 31.292h215.326c5.906-0.275 10.591-5.13 10.591-11.079 0-0.184-0.004-0.367-0.013-0.549l0.001-808.044zM258.437 712.289c3.464-10.168 12.788-17.415 23.849-17.743l8.911-0.001c11.099 0.33 20.423 7.576 23.833 17.561 15.623-10.869 25.659-28.831 25.659-49.135 0-0.417-0.004-0.834-0.013-1.249 0.153-1.464 0.24-3.235 0.24-5.027 0-30.003-24.323-54.326-54.326-54.326s-54.326 24.323-54.326 54.326c0 1.792 0.087 3.563 0.256 5.311-0.021 0.019-0.023 0.303-0.023 0.588 0 20.491 10.175 38.605 25.748 49.566zM573.066 712.289c3.407-10.077 12.578-17.289 23.494-17.743l9.266-0.002c10.968 0.456 20.139 7.667 23.492 17.562 15.811-10.734 26.001-28.721 26.001-49.087 0-0.434-0.005-0.867-0.014-1.299 0.153-1.461 0.24-3.232 0.24-5.025 0-30.003-24.323-54.326-54.326-54.326s-54.326 24.323-54.326 54.326c0 1.792 0.087 3.563 0.256 5.311-0.026 0.145-0.030 0.578-0.030 1.012 0 20.367 10.19 38.354 25.749 49.14zM753.584 487.75h-619.361c-22.698-1.19-40.652-19.884-40.652-42.771 0-0.68 0.016-1.356 0.047-2.027l-0.004-396.432c-0.035-0.645-0.055-1.4-0.055-2.159 0-22.843 17.985-41.486 40.569-42.54l619.456-0.004c22.677 1.058 40.663 19.7 40.663 42.544 0 0.76-0.020 1.515-0.059 2.264l0.004 396.422c0.028 0.577 0.044 1.253 0.044 1.933 0 22.887-17.954 41.581-40.547 42.767zM377.873 224.308c-11.322 7.151-25.101 11.395-39.87 11.395-1.581 0-3.149-0.049-4.705-0.144l-6.27 0.011c-0.321 0.009-0.699 0.014-1.079 0.014-1.906 0-3.782-0.129-5.62-0.379l0.214 31.077q5.119-0.512 8.19-1.024h7.166c0.737-0.032 1.602-0.050 2.47-0.050 9.78 0 19.027 2.286 27.235 6.352 11.877 6.775 19.998 19.709 19.998 34.54 0 1.48-0.081 2.941-0.238 4.379 0.056 0.484 0.078 1.258 0.078 2.035 0 11.746-5.156 22.287-13.328 29.485-8.236 7.042-18.956 11.305-30.671 11.305-0.27 0-0.539-0.002-0.807-0.007-1.328 0.15-2.914 0.236-4.521 0.236-16.84 0-31.489-9.384-39.002-23.206-5.077-10.559-7.974-22.683-7.974-35.484 0-0.444 0.003-0.888 0.010-1.33l-31.395 0.067c-0.031 0.993-0.049 2.16-0.049 3.332 0 18.024 4.174 35.074 11.608 50.235 11.388 22.517 35.010 38.146 62.283 38.146 2.115 0 4.209-0.094 6.276-0.278 1.438 0.139 3.428 0.207 5.435 0.207 20.515 0 39.361-7.147 54.183-19.086 12.974-12.562 21.134-30.336 21.134-50.017 0-1.567-0.052-3.121-0.153-4.662 0.062-0.751 0.091-1.876 0.091-3.006 0-14.471-4.772-27.829-12.827-38.584-5.226-6.39-11.969-11.602-19.673-15.052 12.818-4.091 23.682-12.3 30.924-23.134 7.219-11.505 11.424-25.238 11.424-39.953 0-0.783-0.012-1.564-0.036-2.34 0.042-0.881 0.064-2.049 0.064-3.222 0-23.747-9.102-45.368-24.007-61.565-15.962-15.455-37.829-25.022-61.93-25.022-1.962 0-3.91 0.063-5.84 0.188-1.847-0.223-4.296-0.342-6.773-0.342-23.323 0-44.179 10.563-58.044 27.166-12.72 17.329-20.296 38.926-20.296 62.292 0 1.297 0.023 2.588 0.070 3.875l33.095-0.186c0.267-14.307 3.637-27.765 9.463-39.814 8.12-12.788 22.759-21.539 39.443-21.539 1.766 0 3.508 0.098 5.223 0.289 0.599-0.062 1.547-0.086 2.5-0.086 14.521 0 27.733 5.606 37.59 14.771 9.258 9.273 15.004 22.119 15.004 36.308 0 0.541-0.008 1.081-0.025 1.618 0.199 1.514 0.312 3.357 0.312 5.228 0 14.012-6.326 26.547-16.279 34.904zM478.54 303.819v26.617c17.659 0.946 34.072 5.377 48.861 12.614 10.467 10.037 17.907 24.342 19.37 40.374l25.27 0.247v-276.409h-34.124v196.557h-59.377z" />
<glyph unicode="&#xe922;" glyph-name="forward" horiz-adv-x="768" d="M447.998 342.635c-204.032 0-342.016-17.984-448.001-204.032 0 0 73.986 416.001 448.001 416.001v160l319.999-288.001-319.999-268.033v184z" />
<glyph unicode="&#xe923;" glyph-name="gridA" d="M400.603 476.497h-298.981c-35.209 0-58.616 23.474-58.616 58.616v298.981c0 35.209 23.474 58.616 58.616 58.616h298.981c35.209 0 58.616-23.474 58.616-58.616v-298.981c0-29.308-29.308-58.616-58.616-58.616zM922.444 476.497h-298.981c-35.209 0-58.616 23.474-58.616 58.616v298.981c0 35.209 23.474 58.616 58.616 58.616h299.048c35.209 0 58.616-23.474 58.616-58.616v-298.981c0-29.308-23.474-58.616-58.616-58.616zM400.603-39.442h-298.981c-35.209 0-58.616 23.474-58.616 58.616v299.048c0 35.209 23.474 58.616 58.616 58.616h298.981c35.209 0 58.616-23.474 58.616-58.616v-299.048c0-29.308-29.308-58.616-58.616-58.616zM922.444-39.442h-298.981c-35.209 0-58.616 23.474-58.616 58.616v299.048c0 35.209 23.474 58.616 58.616 58.616h299.048c35.209 0 58.616-23.474 58.616-58.616v-299.048c0-29.308-23.474-58.616-58.616-58.616z" />
<glyph unicode="&#xe924;" glyph-name="gridB" d="M929.92 650.784h-835.84c-24.225 0-48.451 24.225-48.451 48.451v115.071c0 24.225 24.225 48.451 48.451 48.451h835.84c24.225 0 48.451-24.225 48.451-48.451v-115.071c0-24.225-18.169-48.451-48.451-48.451zM929.92-9.423h-835.84c-24.225 0-48.451 24.225-48.451 48.451v115.071c0 24.225 24.225 48.451 48.451 48.451h835.84c24.225 0 48.451-24.225 48.451-48.451v-115.071c0-24.225-18.169-48.451-48.451-48.451zM929.92 317.686h-835.84c-24.225 0-48.451 24.225-48.451 48.451v115.071c0 24.225 24.225 48.451 48.451 48.451h835.84c24.225 0 48.451-24.225 48.451-48.451v-115.071c0-24.225-18.169-48.451-48.451-48.451z" />
<glyph unicode="&#xe925;" glyph-name="gridC" d="M930.768 651.719h-543.775c-25.029 0-49.99 25.029-49.99 49.99v137.487c0 25.029 25.029 49.99 49.99 49.99h543.775c25.029 0 49.99-25.029 49.99-49.99v-143.795c0-25.029-25.029-43.75-49.99-43.75zM224.48 651.719h-131.246c-25.029 0-49.99 25.029-49.99 49.99v137.487c0 25.029 25.029 49.99 49.99 49.99h131.246c25.029 0 49.99-25.029 49.99-49.99v-143.795c0-25.029-25.029-43.75-49.99-43.75zM930.768 307.9h-543.775c-25.029 0-49.99 25.029-49.99 49.99v137.487c0 25.029 25.029 49.99 49.99 49.99h543.775c25.029 0 49.99-25.029 49.99-49.99v-143.795c0-25.029-25.029-43.75-49.99-43.75zM224.48 307.9h-131.246c-25.029 0-49.99 25.029-49.99 49.99v137.487c0 25.029 25.029 49.99 49.99 49.99h131.246c25.029 0 49.99-25.029 49.99-49.99v-143.795c0-25.029-25.029-43.75-49.99-43.75zM930.768-35.851h-543.775c-25.029 0-49.99 25.029-49.99 49.99v143.795c0 25.029 25.029 49.99 49.99 49.99h543.775c25.029 0 49.99-25.029 49.99-49.99v-143.795c0-31.268-25.029-49.99-49.99-49.99zM224.48-35.851h-131.246c-25.029 0-49.99 25.029-49.99 49.99v143.795c0 25.029 25.029 49.99 49.99 49.99h131.246c25.029 0 49.99-25.029 49.99-49.99v-143.795c0-31.268-25.029-49.99-49.99-49.99z" />
<glyph unicode="&#xe926;" glyph-name="star2" d="M979.274 526.898q0-12.369-14.588-26.957l-203.89-198.848 48.334-280.862q0.537-3.966 0.537-11.227 0-11.764-5.916-19.965t-17.143-8.135q-10.688 0-22.452 6.722l-252.157 132.566-252.157-132.566q-12.369-6.722-22.452-6.722-11.764 0-17.68 8.135t-5.916 19.965q0 3.361 1.142 11.227l48.334 280.862-204.427 198.848q-14.051 15.193-14.051 26.957 0 20.772 31.46 25.815l281.938 41.007 126.382 255.585q10.688 23.058 27.494 23.058t27.494-23.058l126.382-255.585 281.938-41.007q31.46-5.042 31.46-25.815z" />
<glyph unicode="&#xe927;" glyph-name="search" d="M981.2 52.534l-208.533 208.533c49.067 67.467 79.733 153.333 79.733 239.2 0 110.4-42.933 214.667-122.667 294.4s-184 122.667-294.4 122.667c-110.4 0-214.667-42.933-294.4-122.667s-122.667-184-122.667-294.4 42.933-214.667 122.667-294.4c79.733-79.733 184-122.667 294.4-122.667 85.867 0 171.733 24.533 239.2 79.733l208.533-208.533c12.267-12.267 30.667-18.4 49.067-18.4s36.8 6.133 49.067 18.4c24.533 30.667 24.533 73.6 0 98.133zM239.067 304c-55.2 49.067-85.867 122.667-85.867 196.267s30.667 147.2 79.733 196.267c55.2 55.2 122.667 79.733 196.267 79.733s153.333-24.533 202.4-79.733c55.2-55.2 79.733-122.667 79.733-196.267s-24.533-147.2-79.733-196.267c-55.2-55.2-122.667-79.733-196.267-79.733s-147.2 24.533-196.267 79.733z" />
<glyph unicode="&#xf021;" glyph-name="change" d="M1004.8 317.867c0 0 0 0 0 0-32-121.6-89.6-217.6-179.2-294.4s-192-108.8-313.6-108.8c-64 0-128 12.8-185.6 38.4s-115.2 57.6-160 102.4l-83.2-83.2c-6.4-6.4-19.2-12.8-32-12.8s-19.2 6.4-32 12.8c-12.8 6.4-19.2 19.2-19.2 25.6v300.8c0 12.8 6.4 19.2 12.8 32s19.2 12.8 32 12.8h300.8c12.8 0 19.2-6.4 32-12.8 0-12.8 6.4-19.2 6.4-32s-6.4-19.2-12.8-32l-89.6-89.6c32-32 70.4-51.2 108.8-70.4 38.4-12.8 83.2-25.6 121.6-25.6 57.6 0 115.2 12.8 166.4 44.8s96 70.4 121.6 121.6c6.4 6.4 19.2 32 38.4 76.8 6.4 12.8 12.8 12.8 19.2 12.8h128c6.4 0 12.8 0 12.8-6.4 6.4 0 6.4-6.4 6.4-12.8v0zM1024 855.467v-300.8c0-12.8-6.4-19.2-12.8-32-6.4-6.4-19.2-12.8-32-12.8h-300.8c-12.8 0-19.2 6.4-32 12.8 0 12.8-6.4 19.2-6.4 32s6.4 19.2 12.8 32l89.6 89.6c-64 64-140.8 89.6-230.4 89.6-57.6 0-115.2-12.8-166.4-44.8s-96-64-121.6-115.2c-6.4-6.4-19.2-32-38.4-76.8 0-12.8-12.8-19.2-19.2-19.2h-134.4c-6.4 0-12.8 0-12.8 6.4-6.4 6.4-6.4 12.8-6.4 19.2v0c25.6 121.6 89.6 217.6 179.2 294.4s198.4 108.8 320 108.8c64 0 128-12.8 192-38.4s115.2-57.6 166.4-102.4l89.6 83.2c6.4 6.4 19.2 12.8 32 12.8s19.2-6.4 32-12.8c-6.4-6.4 0-19.2 0-25.6v0z" />
<glyph unicode="&#xf05a;" glyph-name="info" d="M684.8 106.667v108.801c0 6.399 0 12.801-6.399 12.801-6.399 6.399-12.801 6.399-19.2 6.399h-63.999v339.2c0 6.399 0 12.801-6.399 12.801 0 6.399-6.399 12.801-12.801 12.801h-211.2c-6.399 0-12.801 0-12.801-6.399-6.399-6.399-12.801-12.801-12.801-19.2v-108.801c0-6.399 0-12.801 6.399-12.801 6.399-6.399 6.399-6.399 12.801-6.399h63.999v-211.2h-63.999c-6.399 0-12.801 0-12.801-6.399-6.399-6.399-6.399-6.399-6.399-12.801v-108.801c0-6.399 0-12.801 6.399-12.801 6.399-6.399 6.399-6.399 12.801-6.399h300.8c6.399 0 12.801 0 12.801 6.399 6.399 0 12.801 6.399 12.801 12.801zM595.199 701.866v108.801c0 6.399 0 12.801-6.399 12.801 0 6.399-6.399 6.399-12.801 6.399h-128.001c-6.399 0-12.801 0-12.801-6.399-6.399 0-6.399-6.399-6.399-12.801v-108.801c0-6.399 0-12.801 6.399-12.801 0-6.399 6.399-6.399 12.801-6.399h128.001c6.399 0 12.801 0 12.801 6.399 6.399 6.399 6.399 6.399 6.399 12.801zM1024 426.667c0-96-25.599-179.199-70.401-255.999s-108.801-140.799-185.6-185.6c-76.8-44.799-159.999-70.401-255.999-70.401s-179.199 25.599-255.999 70.401-140.799 108.801-185.6 185.6-70.401 159.999-70.401 255.999 25.599 179.199 70.401 255.999 108.801 140.799 185.6 185.6 159.999 70.401 255.999 70.401 179.199-25.599 255.999-70.401 140.799-108.801 185.6-185.6c44.799-76.8 70.401-159.999 70.401-255.999z" />
<glyph unicode="&#xf06a;" glyph-name="exclamation" d="M512 938.664q139.331 0 257.006-68.656t186.334-186.334 68.656-257.006-68.656-257.006-186.334-186.334-257.006-68.656-257.006 68.656-186.334 186.334-68.656 257.006 68.656 257.006 186.334 186.334 257.006 68.656zM597.346 107.31v126.675q0 9.334-6.012 15.681t-14.673 6.348h-128.019q-8.662 0-15.345-6.684t-6.684-15.345v-126.675q0-8.662 6.684-15.345t15.345-6.684h128.019q8.662 0 14.673 6.348t6.012 15.681zM596.002 336.653l11.985 413.996q0 7.989-6.684 11.985-6.684 5.34-16.017 5.34h-146.685q-9.334 0-16.017-5.34-6.684-3.996-6.684-11.985l11.35-413.996q0-6.684 6.684-11.686t16.017-5.004h123.351q9.334 0 15.681 5.004t7.020 11.686z" />
<glyph unicode="&#xf0c5;" glyph-name="copy" d="M966.4 721.067c12.8 0 25.6-6.4 38.4-19.2 12.8-6.4 19.2-19.2 19.2-38.4v-697.6c0-12.8-6.4-25.6-19.2-38.4s-25.6-19.2-38.4-19.2h-544c-12.8 0-25.6 6.4-38.4 19.2s-19.2 25.6-19.2 38.4v166.4h-307.2c-12.8 0-25.6 6.4-38.4 19.2-12.8 6.4-19.2 19.2-19.2 38.4v384c0 12.8 6.4 32 12.8 51.2s19.2 32 25.6 44.8l230.4 230.4c12.8 12.8 25.6 19.2 44.8 25.6s38.4 12.8 51.2 12.8h236.8c19.2 0 32-6.4 38.4-12.8s19.2-25.6 19.2-38.4v-185.6c25.6 12.8 51.2 25.6 70.4 25.6l236.8-6.4zM659.2 599.467l-172.8-172.8h172.8c0 0 0 172.8 0 172.8zM294.4 817.067l-172.8-172.8h172.8c0 0 0 172.8 0 172.8zM403.2 445.867l179.2 179.2v243.2h-217.6v-236.8c0-12.8-6.4-25.6-19.2-38.4-6.4-12.8-19.2-19.2-32-19.2h-243.2v-364.8h294.4v147.2c0 12.8 6.4 32 12.8 51.2 6.4 12.8 19.2 32 25.6 38.4v0zM953.6-14.933v659.2h-217.6v-236.8c0-12.8-6.4-25.6-19.2-38.4s-25.6-19.2-38.4-19.2h-236.8v-364.8h512z" />
<glyph unicode="&#xf0e0;" glyph-name="mail" d="M1024 532.939v-453.728q0-37.728-26.848-64.576t-64.576-26.848h-841.152q-37.728 0-64.576 26.848t-26.848 64.576v453.728q25.152-28 57.728-49.728 206.848-140.576 284-197.152 32.576-24 52.864-37.44t54.016-27.424 62.848-14.016h1.152q29.152 0 62.848 14.016t54.016 27.424 52.864 37.44q97.152 70.272 284.576 197.152 32.576 22.272 57.152 49.728zM1024 700.939q0-45.152-28-86.272t-69.728-70.272q-214.848-149.152-267.424-185.728-5.728-4-24.288-17.44t-30.848-21.728-29.728-18.56-32.864-15.424-28.576-5.152h-1.152q-13.152 0-28.576 5.152t-32.864 15.424-29.728 18.56-30.848 21.728-24.288 17.44q-52 36.576-149.728 104.288t-117.152 81.44q-35.424 24-66.848 66.016t-31.424 78.016q0 44.576 23.712 74.272t67.712 29.728h841.152q37.152 0 64.288-26.848t27.136-64.576z" />
<glyph unicode="&#xf100;" glyph-name="alert" d="M1014.46 51.412c6.36-12.72 12.72-31.801 6.36-38.161-6.36-12.72-19.081-19.081-31.801-19.081h-947.677c-19.081 0-25.441 6.36-31.801 19.081s-6.36 25.441 0 38.161l464.298 788.671c6.36 12.72 19.081 25.441 31.801 25.441 19.081 0 25.441-6.36 31.801-25.441l477.019-788.671zM588.323 102.294v108.124h-146.286v-108.124h146.286zM588.323 280.381v330.733h-146.286v-324.373h146.286v-6.36z" />
<glyph unicode="&#xf12a;" glyph-name="closemark" horiz-adv-x="768" d="M760 164.651c6.016-6.016 8-12 8-20s-2.016-14.016-8-20l-76-74.016c-6.016-6.016-10.016-8-18.016-8s-14.016 2.016-20 8l-262.016 262.016-262.016-262.016c-6.016-6.016-10.016-8-18.016-8s-14.016 2.016-20 8l-76 74.016c-6.016 6.016-8 12-8 20s2.016 14.016 8 20l264 262.016-264 260c-10.016 10.016-10.016 30.016 0 40l74.016 76c6.016 4 12 8 20 8s14.016-2.016 20-8l262.016-260 262.016 260c6.016 4 12 8 20 8s14.016-2.016 20-8l74.016-76c10.016-10.016 10.016-28 0-38.016l-264-260z" />
<glyph unicode="&#xf2c7;" glyph-name="plus" d="M1024 362.667h-448v-448h-128v448h-448v128h448v448h128v-448h448v-128z" />
<glyph unicode="&#xf2f4;" glyph-name="minus" d="M0 330.667v192h1024v-192h-1024z" />
<glyph unicode="&#xf2f7;" glyph-name="settings" d="M902.4 375.467l115.2-83.2c6.4-6.4 12.8-25.6 6.4-32l-108.8-172.8c-6.4-12.8-19.2-19.2-32-12.8l-134.4 51.2c-32-19.2-57.6-38.4-89.6-51.2l-19.2-134.4c0-12.8-12.8-19.2-25.6-19.2h-204.8c-12.8-6.4-25.6 0-25.6 12.8l-19.2 134.4c-32 12.8-64 32-89.6 51.2l-134.4-51.2c-12.8-6.4-25.6 0-32 12.8l-108.8 172.8c0 12.8 0 32 12.8 38.4l108.8 83.2c0 19.2 0 32 0 51.2s0 32 0 51.2l-115.2 83.2c-6.4 6.4-6.4 25.6-6.4 38.4l108.8 172.8c6.4 6.4 19.2 19.2 32 12.8l134.4-51.2c32 19.2 57.6 38.4 89.6 51.2l19.2 134.4c0 6.4 12.8 19.2 19.2 19.2h211.2c12.8 0 25.6-12.8 25.6-19.2l19.2-134.4c32-12.8 64-32 89.6-51.2l128 51.2c12.8 6.4 25.6 0 32-12.8l108.8-172.8c6.4-12.8 6.4-32-6.4-38.4l-108.8-83.2c0-19.2 0-32 0-51.2s0-38.4 0-51.2v0zM512 247.467c102.4 0 185.6 76.8 185.6 179.2s-89.6 179.2-185.6 179.2-185.6-76.8-185.6-179.2 83.2-179.2 185.6-179.2z" />
</font>
</defs>
</svg>
